<?xml version="1.0" encoding="UTF-8" standalone="no"?><!-- Generator: Gravit.io --><svg xmlns="http://www.w3.org/2000/svg" xmlns:xlink="http://www.w3.org/1999/xlink" style="isolation:isolate" viewBox="0 0 500 500" width="500pt" height="500pt"><defs><clipPath id="_clipPath_hC14jiksRDKFouR2E1r6guFcHhUHv0hH"><rect width="500" height="500"/></clipPath></defs><g clip-path="url(#_clipPath_hC14jiksRDKFouR2E1r6guFcHhUHv0hH)"><g><path d=" M 248.208 70.788 L 238.506 70.997 L 229.042 71.79 L 219.551 72.801 L 210.271 74.395 L 201.21 76.408 L 192.36 78.829 L 183.703 81.635 L 175.064 84.858 L 166.838 88.465 L 158.629 92.481 L 150.824 96.706 L 143.229 101.523 L 135.851 106.341 L 128.685 111.768 L 121.947 117.388 L 115.421 123.232 L 109.301 129.445 L 103.394 136.083 L 97.7 142.704 L 92.433 149.743 L 87.592 157.182 L 83.157 164.605 L 78.934 172.253 L 75.16 180.285 L 71.769 188.326 L 68.826 196.751 L 66.289 205.192 L 64.199 213.826 L 62.493 222.685 L 61.448 231.728 L 60.595 240.762 L 60.403 249.988 L 60.595 259.24 L 61.448 268.274 L 62.493 277.316 L 64.199 286.15 L 66.289 294.809 L 68.826 303.234 L 71.769 311.675 L 75.16 319.716 L 78.934 327.748 L 83.157 335.38 L 87.592 342.819 L 92.433 350.261 L 97.7 357.293 L 103.394 363.915 L 109.301 370.538 L 115.421 376.77 L 121.947 382.592 L 128.685 388.23 L 135.851 393.642 L 143.229 398.48 L 150.824 403.298 L 158.629 407.521 L 166.838 411.539 L 175.064 415.148 L 183.703 418.367 L 192.36 421.175 L 201.21 423.594 L 210.271 425.603 L 219.551 427.202 L 229.042 428.207 L 238.506 429.007 L 248.208 429.212 L 257.91 429.007 L 267.4 428.207 L 276.874 427.202 L 286.145 425.603 L 295.214 423.594 L 304.082 421.175 L 312.721 418.367 L 321.352 415.148 L 329.587 411.539 L 337.796 407.521 L 345.601 403.298 L 353.196 398.48 L 360.571 393.642 L 367.735 388.23 L 374.478 382.592 L 381.018 376.77 L 387.12 370.538 L 393.029 363.915 L 398.718 357.293 L 403.986 350.261 L 408.833 342.819 L 413.266 335.38 L 417.489 327.748 L 421.282 319.716 L 424.654 311.675 L 427.595 303.234 L 430.132 294.809 L 432.248 286.15 L 433.925 277.316 L 434.97 268.274 L 435.83 259.24 L 436.041 249.988 L 435.83 240.762 L 434.97 231.728 L 433.925 222.685 L 432.248 213.826 L 430.132 205.192 L 427.595 196.751 L 424.654 188.326 L 421.282 180.285 L 417.489 172.253 L 413.266 164.605 L 408.833 157.182 L 403.986 149.743 L 398.718 142.704 L 393.029 136.083 L 387.12 129.445 L 381.018 123.232 L 374.478 117.388 L 367.735 111.768 L 360.571 106.341 L 353.196 101.523 L 345.601 96.706 L 337.796 92.481 L 329.587 88.465 L 321.352 84.858 L 312.721 81.635 L 304.082 78.829 L 295.214 76.408 L 286.145 74.395 L 276.874 72.801 L 267.4 71.79 L 257.91 70.997 L 248.208 70.788 Z " fill-rule="evenodd" fill="rgb(70,49,112)"/><path d=" M 65.773 249.986 L 58.8 249.986 L 58.8 247.59 L 58.8 245.377 L 58.8 242.956 L 59.013 240.559 L 59.013 238.347 L 59.227 235.925 L 59.44 233.729 L 59.653 231.308 L 59.866 229.095 L 60.293 226.699 L 60.506 224.486 L 60.911 222.274 L 61.338 219.852 L 61.764 217.656 L 62.191 215.444 L 62.596 213.231 L 63.022 211.018 L 63.662 208.797 L 64.089 206.61 L 64.707 204.397 L 65.347 202.176 L 65.987 199.963 L 66.605 197.96 L 67.245 195.739 L 68.077 193.551 L 68.716 191.539 L 69.569 189.326 L 70.401 187.314 L 71.041 185.101 L 71.872 183.097 L 72.939 181.085 L 73.77 178.872 L 74.623 176.86 L 75.668 174.848 L 76.521 172.844 L 77.566 170.832 L 78.632 168.828 L 79.677 166.815 L 80.722 165.012 L 81.788 163 L 82.834 160.996 L 84.113 159.192 L 85.158 157.18 L 86.416 155.376 L 87.695 153.548 L 88.954 151.544 L 90.212 149.74 L 91.491 147.937 L 92.749 146.133 L 94.007 144.322 L 95.287 142.501 L 96.758 140.698 L 98.016 139.095 L 99.488 137.291 L 100.959 135.671 L 102.452 133.868 L 103.923 132.273 L 105.395 130.653 L 106.866 128.85 L 108.338 127.247 L 110.023 125.627 L 111.515 124.032 L 113.2 122.412 L 114.671 121.018 L 116.356 119.398 L 118.04 117.795 L 119.725 116.384 L 121.41 114.989 L 123.095 113.369 L 124.779 111.975 L 126.464 110.564 L 128.362 109.17 L 130.067 107.75 L 131.945 106.339 L 133.65 105.145 L 135.549 103.734 L 137.446 102.523 L 139.323 101.129 L 141.22 99.918 L 143.118 98.708 L 145.017 97.497 L 146.913 96.294 L 148.809 95.1 L 150.706 93.89 L 152.822 92.679 L 154.718 91.677 L 156.834 90.675 L 158.731 89.464 L 160.838 88.463 L 162.954 87.452 L 165.043 86.45 L 167.15 85.448 L 169.266 84.438 L 171.373 83.645 L 173.489 82.634 L 175.596 81.841 L 177.703 81.04 L 179.793 80.221 L 182.12 79.42 L 184.236 78.618 L 186.343 77.817 L 188.669 77.024 L 190.97 76.406 L 193.086 75.604 L 195.403 75.011 L 197.73 74.393 L 199.82 73.801 L 202.146 73.183 L 204.473 72.59 L 206.791 72.181 L 209.1 71.588 L 211.426 71.179 L 213.744 70.786 L 216.071 70.377 L 218.591 69.985 L 220.908 69.576 L 223.235 69.167 L 225.535 68.983 L 228.073 68.574 L 230.399 68.365 L 232.919 68.165 L 235.246 67.981 L 237.783 67.772 L 240.083 67.772 L 242.621 67.572 L 245.158 67.572 L 247.458 67.572 L 249.996 67.572 L 249.996 74.193 L 247.678 74.193 L 245.158 74.193 L 242.831 74.193 L 240.513 74.393 L 238.187 74.602 L 235.878 74.602 L 233.56 74.803 L 231.233 75.011 L 228.933 75.404 L 226.606 75.604 L 224.28 75.813 L 221.953 76.197 L 219.653 76.606 L 217.326 77.024 L 215.219 77.207 L 212.893 77.817 L 210.592 78.209 L 208.476 78.618 L 206.158 79.211 L 203.832 79.62 L 201.716 80.221 L 199.626 80.831 L 197.309 81.424 L 195.193 82.042 L 193.086 82.634 L 190.97 83.436 L 188.862 84.054 L 186.553 84.855 L 184.446 85.649 L 182.339 86.45 L 180.434 87.068 L 178.327 88.07 L 176.211 88.872 L 174.104 89.673 L 172.225 90.675 L 170.118 91.477 L 168.221 92.479 L 166.105 93.481 L 164.209 94.282 L 162.102 95.284 L 160.197 96.495 L 158.3 97.497 L 156.404 98.507 L 154.508 99.718 L 152.611 100.72 L 150.706 101.93 L 148.809 102.932 L 146.913 104.143 L 145.23 105.329 L 143.332 106.539 L 141.434 107.75 L 139.749 109.17 L 138.065 110.355 L 136.167 111.766 L 134.482 112.977 L 132.797 114.371 L 131.112 115.582 L 129.428 116.993 L 127.743 118.388 L 126.059 119.807 L 124.587 121.218 L 122.881 122.821 L 121.196 124.232 L 119.725 125.627 L 118.253 127.247 L 116.57 128.641 L 115.098 130.261 L 113.627 131.864 L 112.133 133.275 L 110.663 134.878 L 109.191 136.473 L 107.72 138.093 L 106.44 139.696 L 104.968 141.499 L 103.71 143.119 L 102.452 144.714 L 100.959 146.517 L 99.701 148.137 L 98.443 149.941 L 97.164 151.744 L 95.906 153.364 L 94.861 155.168 L 93.581 156.971 L 92.323 158.775 L 91.278 160.587 L 90.212 162.407 L 88.954 164.419 L 87.908 166.223 L 86.842 168.026 L 85.798 170.03 L 84.944 171.842 L 83.899 173.846 L 82.834 175.649 L 82.001 177.662 L 81.149 179.666 L 80.104 181.494 L 79.251 183.506 L 78.419 185.51 L 77.779 187.523 L 76.948 189.526 L 76.094 191.539 L 75.455 193.551 L 74.623 195.555 L 73.984 197.751 L 73.344 199.763 L 72.725 201.767 L 72.085 203.98 L 71.467 205.992 L 71.041 208.205 L 70.401 210.217 L 69.974 212.429 L 69.569 214.642 L 68.929 216.654 L 68.716 218.85 L 68.29 221.063 L 67.863 223.276 L 67.458 225.488 L 67.245 227.701 L 67.032 229.897 L 66.605 231.909 L 66.392 234.322 L 66.179 236.543 L 66.179 238.756 L 65.987 240.943 L 65.773 243.164 L 65.773 245.377 L 65.773 247.798 L 65.773 249.986 Z  M 249.996 425.786 L 249.996 432.428 L 247.458 432.428 L 245.158 432.428 L 242.621 432.428 L 240.083 432.223 L 237.783 432.223 L 235.246 432.018 L 232.919 431.813 L 230.399 431.629 L 228.073 431.424 L 225.535 431.014 L 223.235 430.809 L 220.908 430.419 L 218.591 430.009 L 216.071 429.62 L 213.744 429.21 L 211.426 428.799 L 209.1 428.41 L 206.791 427.795 L 204.473 427.405 L 202.146 426.79 L 199.82 426.196 L 197.73 425.601 L 195.403 424.986 L 193.086 424.391 L 190.97 423.592 L 188.669 422.977 L 186.343 422.178 L 184.236 421.378 L 182.12 420.578 L 179.793 419.758 L 177.703 418.959 L 175.596 418.159 L 173.489 417.36 L 171.373 416.355 L 169.266 415.556 L 167.15 414.551 L 165.043 413.547 L 162.954 412.542 L 160.838 411.537 L 158.731 410.533 L 156.834 409.324 L 154.718 408.318 L 152.822 407.314 L 150.706 406.105 L 148.809 404.895 L 146.913 403.685 L 145.017 402.496 L 143.118 401.287 L 141.22 400.077 L 139.323 398.867 L 137.446 397.474 L 135.549 396.264 L 133.65 394.85 L 131.945 393.64 L 130.067 392.246 L 128.362 390.831 L 126.464 389.437 L 124.779 388.023 L 123.095 386.608 L 121.41 385.009 L 119.725 383.594 L 118.04 382.2 L 116.356 380.581 L 114.671 378.982 L 113.2 377.567 L 111.515 375.968 L 110.023 374.369 L 108.338 372.749 L 106.866 371.15 L 105.395 369.347 L 103.923 367.727 L 102.452 366.128 L 100.959 364.323 L 99.488 362.704 L 98.016 360.9 L 96.758 359.3 L 95.287 357.476 L 94.007 355.672 L 92.749 353.868 L 91.491 352.064 L 90.212 350.259 L 88.954 348.437 L 87.695 346.424 L 86.416 344.621 L 85.158 342.817 L 84.113 340.805 L 82.834 339.001 L 81.788 336.998 L 80.722 334.985 L 79.677 333.182 L 78.632 331.17 L 77.566 329.166 L 76.521 327.153 L 75.668 325.149 L 74.623 323.137 L 73.77 321.125 L 72.939 318.912 L 71.872 316.9 L 71.041 314.896 L 70.401 312.683 L 69.569 310.671 L 68.716 308.459 L 68.077 306.446 L 67.245 304.234 L 66.605 302.038 L 65.987 300.034 L 65.347 297.821 L 64.707 295.6 L 64.089 293.387 L 63.662 291.175 L 63.022 288.979 L 62.596 286.766 L 62.191 284.554 L 61.764 282.341 L 61.338 280.128 L 60.911 277.724 L 60.506 275.511 L 60.293 273.298 L 59.866 270.902 L 59.653 268.689 L 59.44 266.268 L 59.227 264.055 L 59.013 261.651 L 59.013 259.438 L 58.8 257.016 L 58.8 254.62 L 58.8 252.407 L 58.8 249.986 L 65.773 249.986 L 65.773 252.199 L 65.773 254.62 L 65.773 256.833 L 65.987 259.029 L 66.179 261.241 L 66.179 263.454 L 66.392 265.675 L 66.605 268.071 L 67.032 270.284 L 67.245 272.296 L 67.458 274.509 L 67.863 276.722 L 68.29 278.934 L 68.716 281.13 L 68.929 283.343 L 69.569 285.355 L 69.974 287.568 L 70.401 289.78 L 71.041 291.793 L 71.467 294.005 L 72.085 296.018 L 72.725 298.205 L 73.344 300.217 L 73.984 302.221 L 74.623 304.442 L 75.455 306.446 L 76.094 308.459 L 76.948 310.471 L 77.779 312.475 L 78.419 314.487 L 79.251 316.491 L 80.104 318.503 L 81.149 320.307 L 82.001 322.319 L 82.834 324.323 L 83.899 326.151 L 84.944 328.155 L 85.798 329.967 L 86.842 331.971 L 87.908 333.775 L 88.954 335.578 L 90.212 337.59 L 91.278 339.394 L 92.323 341.222 L 93.581 343.026 L 94.861 344.83 L 95.906 346.633 L 97.164 348.253 L 98.443 350.055 L 99.701 351.858 L 100.959 353.458 L 102.452 355.282 L 103.71 356.881 L 104.968 358.48 L 106.44 360.305 L 107.72 361.905 L 109.191 363.503 L 110.663 365.123 L 112.133 366.722 L 113.627 368.137 L 115.098 369.736 L 116.57 371.355 L 118.253 372.749 L 119.725 374.369 L 121.196 375.763 L 122.881 377.178 L 124.587 378.777 L 126.059 380.191 L 127.743 381.585 L 129.428 383 L 131.112 384.414 L 132.797 385.603 L 134.482 387.019 L 136.167 388.228 L 138.065 389.622 L 139.749 390.831 L 141.434 392.246 L 143.332 393.455 L 145.23 394.644 L 146.913 395.854 L 148.809 397.064 L 150.706 398.068 L 152.611 399.277 L 154.508 400.283 L 156.404 401.492 L 158.3 402.496 L 160.197 403.501 L 162.102 404.691 L 164.209 405.695 L 166.105 406.515 L 168.002 407.519 L 170.118 408.524 L 172.225 409.324 L 174.104 410.328 L 176.211 411.127 L 178.327 411.927 L 180.434 412.932 L 182.339 413.547 L 184.446 414.346 L 186.553 415.146 L 188.862 415.945 L 190.97 416.56 L 193.086 417.36 L 195.193 417.955 L 197.309 418.569 L 199.626 419.164 L 201.716 419.758 L 203.832 420.374 L 206.158 420.763 L 208.476 421.378 L 210.592 421.767 L 212.893 422.178 L 215.219 422.772 L 217.326 422.977 L 219.653 423.387 L 221.953 423.777 L 224.28 424.187 L 226.606 424.391 L 228.933 424.597 L 231.233 424.986 L 233.56 425.191 L 235.878 425.396 L 238.187 425.396 L 240.513 425.601 L 242.831 425.786 L 245.158 425.786 L 247.678 425.786 L 249.996 425.786 Z  M 434.22 249.986 L 441.2 249.986 L 441.2 252.407 L 441.2 254.62 L 441.2 257.016 L 440.98 259.438 L 440.98 261.651 L 440.77 264.055 L 440.559 266.268 L 440.348 268.689 L 440.129 270.902 L 439.707 273.298 L 439.514 275.511 L 439.084 277.724 L 438.662 280.128 L 438.232 282.341 L 437.828 284.554 L 437.398 286.766 L 436.977 288.979 L 436.336 291.175 L 435.932 293.387 L 435.291 295.6 L 434.65 297.821 L 434.036 300.034 L 433.395 302.038 L 432.754 304.234 L 431.92 306.446 L 431.279 308.459 L 430.453 310.671 L 429.593 312.683 L 428.961 314.896 L 428.127 316.9 L 427.056 318.912 L 426.23 321.125 L 425.37 323.137 L 424.325 325.149 L 423.474 327.153 L 422.429 329.166 L 421.366 331.17 L 420.322 333.182 L 419.277 334.985 L 418.206 336.998 L 417.161 339.001 L 415.888 340.805 L 414.843 342.817 L 413.579 344.621 L 412.306 346.424 L 411.042 348.437 L 409.786 350.259 L 408.531 352.064 L 407.249 353.868 L 405.993 355.672 L 404.729 357.476 L 403.236 359.3 L 401.981 360.9 L 400.506 362.704 L 399.04 364.323 L 397.547 366.128 L 396.072 367.727 L 394.606 369.347 L 393.131 371.15 L 391.656 372.749 L 389.979 374.369 L 388.486 375.968 L 386.801 377.567 L 385.326 378.982 L 383.64 380.581 L 381.954 382.2 L 380.269 383.594 L 378.583 385.009 L 376.906 386.608 L 375.22 388.023 L 373.535 389.437 L 371.638 390.831 L 369.953 392.246 L 368.056 393.64 L 366.37 394.85 L 364.474 396.264 L 362.569 397.474 L 360.672 398.867 L 358.776 400.077 L 356.88 401.287 L 354.983 402.496 L 353.087 403.685 L 351.182 404.895 L 349.285 406.105 L 347.178 407.314 L 345.282 408.318 L 343.166 409.324 L 341.269 410.533 L 339.162 411.537 L 337.064 412.542 L 334.957 413.547 L 332.85 414.551 L 330.734 415.556 L 328.627 416.355 L 326.511 417.36 L 324.403 418.159 L 322.314 418.959 L 320.198 419.758 L 317.871 420.578 L 315.764 421.378 L 313.657 422.178 L 311.348 422.977 L 309.021 423.592 L 306.914 424.391 L 304.588 424.986 L 302.287 425.601 L 300.18 426.196 L 297.854 426.79 L 295.527 427.405 L 293.2 427.795 L 290.9 428.41 L 288.574 428.799 L 286.247 429.21 L 283.947 429.62 L 281.409 430.009 L 279.083 430.419 L 276.765 430.809 L 274.456 431.014 L 271.918 431.424 L 269.592 431.629 L 267.081 431.813 L 264.754 432.018 L 262.217 432.223 L 259.917 432.223 L 257.379 432.428 L 254.842 432.428 L 252.533 432.428 L 249.996 432.428 L 249.996 425.786 L 252.322 425.786 L 254.842 425.786 L 257.16 425.786 L 259.486 425.601 L 261.813 425.396 L 264.113 425.396 L 266.44 425.191 L 268.767 424.986 L 271.093 424.597 L 273.393 424.391 L 275.72 424.187 L 278.038 423.777 L 280.347 423.387 L 282.665 422.977 L 284.781 422.772 L 287.107 422.178 L 289.425 421.767 L 291.515 421.378 L 293.841 420.763 L 295.957 420.374 L 298.275 419.758 L 300.391 419.164 L 302.691 418.569 L 304.807 417.955 L 306.914 417.36 L 309.021 416.56 L 311.137 415.945 L 313.438 415.146 L 315.554 414.346 L 317.661 413.547 L 319.557 412.932 L 321.673 411.927 L 323.78 411.127 L 325.896 410.328 L 327.792 409.324 L 329.882 408.524 L 331.778 407.519 L 333.894 406.515 L 335.791 405.695 L 337.898 404.691 L 339.794 403.501 L 341.699 402.496 L 343.596 401.492 L 345.492 400.283 L 347.389 399.277 L 349.285 398.068 L 351.182 397.064 L 353.087 395.854 L 354.764 394.644 L 356.669 393.455 L 358.565 392.246 L 360.251 390.831 L 361.937 389.622 L 363.833 388.228 L 365.519 387.019 L 367.196 385.603 L 368.881 384.414 L 370.567 383 L 372.253 381.585 L 373.939 380.191 L 375.431 378.777 L 377.117 377.178 L 378.802 375.763 L 380.269 374.369 L 381.744 372.749 L 383.429 371.355 L 384.896 369.736 L 386.388 368.137 L 387.863 366.722 L 389.338 365.123 L 390.804 363.503 L 392.279 361.905 L 393.561 360.305 L 395.027 358.48 L 396.283 356.881 L 397.547 355.282 L 399.04 353.458 L 400.295 351.858 L 401.551 350.055 L 402.833 348.253 L 404.088 346.633 L 405.133 344.83 L 406.415 343.026 L 407.67 341.222 L 408.724 339.394 L 409.786 337.59 L 411.042 335.578 L 412.113 333.775 L 413.157 331.971 L 414.202 329.967 L 415.054 328.155 L 416.099 326.151 L 417.161 324.323 L 417.995 322.319 L 418.847 320.307 L 419.681 318.503 L 420.743 316.491 L 421.577 314.487 L 422.218 312.475 L 423.07 310.471 L 423.904 308.459 L 424.545 306.446 L 425.37 304.234 L 426.011 302.221 L 426.652 300.217 L 427.275 298.205 L 427.907 296.018 L 428.548 294.005 L 428.961 291.793 L 429.593 289.78 L 430.023 287.568 L 430.453 285.355 L 431.068 283.343 L 431.279 281.13 L 431.709 278.934 L 432.13 276.722 L 432.543 274.509 L 432.754 272.296 L 432.964 270.284 L 433.395 268.071 L 433.605 265.675 L 433.816 263.454 L 433.816 261.241 L 434.036 259.029 L 434.22 256.833 L 434.22 254.62 L 434.22 252.199 L 434.22 249.986 Z  M 249.996 74.193 L 249.996 67.572 L 252.533 67.572 L 254.842 67.572 L 257.379 67.572 L 259.917 67.772 L 262.217 67.772 L 264.754 67.981 L 267.081 68.165 L 269.592 68.365 L 271.918 68.574 L 274.456 68.983 L 276.765 69.167 L 279.083 69.576 L 281.409 69.985 L 283.947 70.377 L 286.247 70.786 L 288.574 71.179 L 290.9 71.588 L 293.2 72.181 L 295.527 72.59 L 297.854 73.183 L 300.18 73.801 L 302.287 74.393 L 304.588 75.011 L 306.914 75.604 L 309.021 76.406 L 311.348 77.024 L 313.657 77.817 L 315.764 78.618 L 317.871 79.42 L 320.198 80.221 L 322.314 81.04 L 324.403 81.841 L 326.511 82.634 L 328.627 83.645 L 330.734 84.438 L 332.85 85.448 L 334.957 86.45 L 337.064 87.452 L 339.162 88.463 L 341.269 89.464 L 343.166 90.675 L 345.282 91.677 L 347.178 92.679 L 349.285 93.89 L 351.182 95.1 L 353.087 96.294 L 354.983 97.497 L 356.88 98.708 L 358.776 99.918 L 360.672 101.129 L 362.569 102.523 L 364.474 103.734 L 366.37 105.145 L 368.056 106.339 L 369.953 107.75 L 371.638 109.17 L 373.535 110.564 L 375.22 111.975 L 376.906 113.369 L 378.583 114.989 L 380.269 116.384 L 381.954 117.795 L 383.64 119.398 L 385.326 121.018 L 386.801 122.412 L 388.486 124.032 L 389.979 125.627 L 391.656 127.247 L 393.131 128.85 L 394.606 130.653 L 396.072 132.273 L 397.547 133.868 L 399.04 135.671 L 400.506 137.291 L 401.981 139.095 L 403.236 140.698 L 404.729 142.501 L 405.993 144.322 L 407.249 146.133 L 408.531 147.937 L 409.786 149.74 L 411.042 151.544 L 412.306 153.548 L 413.579 155.376 L 414.843 157.18 L 415.888 159.192 L 417.161 160.996 L 418.206 163 L 419.277 165.012 L 420.322 166.815 L 421.366 168.828 L 422.429 170.832 L 423.474 172.844 L 424.325 174.848 L 425.37 176.86 L 426.23 178.872 L 427.056 181.085 L 428.127 183.097 L 428.961 185.101 L 429.593 187.314 L 430.453 189.326 L 431.279 191.539 L 431.92 193.551 L 432.754 195.739 L 433.395 197.96 L 434.036 199.963 L 434.65 202.176 L 435.291 204.397 L 435.932 206.61 L 436.336 208.797 L 436.977 211.018 L 437.398 213.231 L 437.828 215.444 L 438.232 217.656 L 438.662 219.852 L 439.084 222.274 L 439.514 224.486 L 439.707 226.699 L 440.129 229.095 L 440.348 231.308 L 440.559 233.729 L 440.77 235.925 L 440.98 238.347 L 440.98 240.559 L 441.2 242.956 L 441.2 245.377 L 441.2 247.59 L 441.2 249.986 L 434.22 249.986 L 434.22 247.798 L 434.22 245.377 L 434.22 243.164 L 434.036 240.943 L 433.816 238.756 L 433.816 236.543 L 433.605 234.322 L 433.395 231.909 L 432.964 229.897 L 432.754 227.701 L 432.543 225.488 L 432.13 223.276 L 431.709 221.063 L 431.279 218.85 L 431.068 216.654 L 430.453 214.642 L 430.023 212.429 L 429.593 210.217 L 428.961 208.205 L 428.548 205.992 L 427.907 203.98 L 427.275 201.767 L 426.652 199.763 L 426.011 197.751 L 425.37 195.739 L 424.545 193.551 L 423.904 191.539 L 423.07 189.526 L 422.218 187.523 L 421.577 185.51 L 420.743 183.506 L 419.681 181.494 L 418.847 179.666 L 417.995 177.662 L 417.161 175.649 L 416.099 173.846 L 415.054 171.842 L 414.202 170.03 L 413.157 168.026 L 412.113 166.223 L 411.042 164.419 L 409.786 162.407 L 408.724 160.587 L 407.67 158.775 L 406.415 156.971 L 405.133 155.168 L 404.088 153.364 L 402.833 151.744 L 401.551 149.941 L 400.295 148.137 L 399.04 146.517 L 397.547 144.714 L 396.283 143.119 L 395.027 141.499 L 393.561 139.696 L 392.279 138.093 L 390.804 136.473 L 389.338 134.878 L 387.863 133.275 L 386.388 131.864 L 384.896 130.261 L 383.429 128.641 L 381.744 127.247 L 380.269 125.627 L 378.802 124.232 L 377.117 122.821 L 375.431 121.218 L 373.939 119.807 L 372.253 118.388 L 370.567 116.993 L 368.881 115.582 L 367.196 114.371 L 365.519 112.977 L 363.833 111.766 L 361.937 110.355 L 360.251 109.17 L 358.565 107.75 L 356.669 106.539 L 354.764 105.329 L 353.087 104.143 L 351.182 102.932 L 349.285 101.93 L 347.389 100.72 L 345.492 99.718 L 343.596 98.507 L 341.699 97.497 L 339.794 96.495 L 337.898 95.284 L 335.791 94.282 L 333.894 93.481 L 331.778 92.479 L 329.882 91.477 L 327.792 90.675 L 325.896 89.673 L 323.78 88.872 L 321.673 88.07 L 319.557 87.068 L 317.661 86.45 L 315.554 85.649 L 313.438 84.855 L 311.137 84.054 L 309.021 83.436 L 306.914 82.634 L 304.807 82.042 L 302.691 81.424 L 300.391 80.831 L 298.275 80.221 L 295.957 79.62 L 293.841 79.211 L 291.515 78.618 L 289.425 78.209 L 287.107 77.817 L 284.781 77.207 L 282.665 77.024 L 280.347 76.606 L 278.038 76.197 L 275.72 75.813 L 273.393 75.604 L 271.093 75.404 L 268.767 75.011 L 266.44 74.803 L 264.113 74.602 L 261.813 74.602 L 259.486 74.393 L 257.16 74.193 L 254.842 74.193 L 252.322 74.193 L 249.996 74.193 Z " fill="rgb(218,36,29)"/><path d=" M 118.68 148.53 L 119.512 344.83 L 251.681 399.277 L 383.219 344.028 L 379.224 146.334 L 373.728 147.728 L 368.24 149.139 L 362.981 150.35 L 357.714 151.36 L 352.657 152.362 L 347.599 153.164 L 342.551 153.757 L 337.687 154.166 L 333.06 154.558 L 328.407 154.759 L 323.78 154.967 L 319.346 154.967 L 314.93 154.759 L 310.707 154.375 L 306.484 153.957 L 302.287 153.548 L 298.275 152.955 L 294.272 152.153 L 290.259 151.152 L 286.466 150.35 L 282.665 149.139 L 279.083 147.937 L 275.501 146.726 L 271.918 145.332 L 268.547 143.712 L 265.184 142.109 L 261.813 140.489 L 258.424 138.686 L 255.263 136.682 L 252.111 134.669 L 249.17 132.657 L 246.203 130.444 L 243.472 132.866 L 240.724 134.878 L 237.783 137.091 L 234.815 138.894 L 231.874 140.698 L 228.714 142.501 L 225.535 144.121 L 222.173 145.516 L 218.801 146.927 L 215.43 148.137 L 211.848 149.139 L 208.266 150.15 L 204.473 151.152 L 200.671 151.953 L 196.668 152.546 L 192.655 153.164 L 188.669 153.548 L 184.446 153.957 L 180.223 154.166 L 176 154.375 L 167.15 154.375 L 158.09 153.957 L 148.599 153.164 L 138.917 151.953 L 129.002 150.534 L 118.68 148.53 Z " fill-rule="evenodd" fill="rgb(226,96,72)"/><path d=" M 118.68 346.424 L 117.614 344.83 L 116.995 148.53 L 120.365 148.53 L 121.196 344.83 L 118.68 346.424 Z  M 118.68 346.424 L 117.614 346.04 L 117.614 344.83 L 118.68 346.424 Z  M 252.322 400.672 L 251.04 400.672 L 118.68 346.424 L 120.152 343.41 L 252.322 397.658 L 252.322 400.672 Z  M 252.322 400.672 L 251.681 401.082 L 251.04 400.672 L 252.322 400.672 Z  M 384.896 344.028 L 383.851 345.623 L 252.322 400.672 L 251.04 397.658 L 382.385 342.609 L 384.896 344.028 Z  M 384.896 344.028 L 384.896 345.239 L 383.851 345.623 L 384.896 344.028 Z  M 378.583 144.714 L 380.91 146.334 L 384.896 344.028 L 381.313 344.228 L 377.327 146.334 L 378.583 144.714 Z  M 378.583 144.714 L 380.91 144.121 L 380.91 146.334 L 378.583 144.714 Z  M 247.265 131.655 L 244.947 129.259 L 247.265 129.259 L 248.74 130.261 L 250.215 131.263 L 251.681 132.273 L 253.156 133.275 L 254.649 134.277 L 256.334 135.287 L 257.801 136.289 L 259.486 137.091 L 260.961 138.093 L 262.647 138.894 L 264.333 139.896 L 266.01 140.698 L 267.485 141.499 L 269.188 142.318 L 270.874 142.91 L 272.77 143.712 L 274.456 144.322 L 276.141 145.123 L 277.827 145.716 L 279.724 146.334 L 281.409 146.927 L 283.306 147.519 L 285.202 148.137 L 287.107 148.73 L 288.784 149.139 L 290.689 149.532 L 292.586 150.15 L 294.693 150.534 L 296.589 150.951 L 298.495 151.152 L 300.584 151.544 L 302.481 151.953 L 304.588 152.153 L 306.704 152.362 L 308.6 152.546 L 310.707 152.755 L 312.823 152.955 L 314.93 152.955 L 317.239 153.164 L 319.346 153.164 L 321.462 153.164 L 323.78 153.164 L 326.107 153.164 L 328.196 153.164 L 330.523 152.955 L 332.85 152.955 L 335.167 152.755 L 337.687 152.546 L 340.014 152.362 L 342.332 152.153 L 344.851 151.744 L 347.178 151.36 L 349.715 151.152 L 352.226 150.742 L 354.764 150.35 L 357.283 149.74 L 359.821 149.348 L 362.569 148.73 L 365.089 148.137 L 367.837 147.519 L 370.567 146.927 L 373.104 146.133 L 375.835 145.516 L 378.583 144.714 L 379.637 147.937 L 376.906 148.73 L 374.149 149.532 L 371.419 150.15 L 368.671 150.742 L 365.94 151.36 L 363.192 151.953 L 360.672 152.546 L 357.924 153.164 L 355.405 153.548 L 352.867 153.957 L 350.33 154.375 L 347.819 154.759 L 345.282 155.168 L 342.744 155.376 L 340.435 155.56 L 337.898 155.969 L 335.571 156.178 L 333.06 156.178 L 330.734 156.378 L 328.407 156.562 L 326.107 156.562 L 323.78 156.562 L 321.462 156.562 L 319.346 156.562 L 317.02 156.562 L 314.93 156.378 L 312.612 156.178 L 310.496 156.178 L 308.389 155.969 L 306.273 155.769 L 304.166 155.376 L 302.077 155.168 L 299.961 154.759 L 297.854 154.558 L 295.957 154.166 L 293.841 153.757 L 291.945 153.364 L 289.829 152.955 L 287.933 152.362 L 286.036 151.953 L 284.14 151.36 L 282.243 150.742 L 280.347 150.15 L 278.468 149.532 L 276.765 148.939 L 274.86 148.137 L 272.99 147.519 L 271.278 146.726 L 269.592 145.925 L 267.695 145.332 L 266.01 144.514 L 264.333 143.503 L 262.647 142.702 L 260.961 141.909 L 259.276 140.898 L 257.59 140.105 L 255.904 139.095 L 254.438 138.093 L 252.752 137.091 L 251.26 136.08 L 249.574 135.079 L 248.099 134.077 L 246.633 132.866 L 244.947 131.864 L 247.265 131.655 Z  M 244.947 129.259 L 245.992 128.249 L 247.265 129.259 L 244.947 129.259 Z  M 120.365 148.53 L 116.995 148.53 L 119.107 146.927 L 121.623 147.519 L 124.16 147.937 L 126.677 148.346 L 129.215 148.73 L 131.752 149.348 L 134.269 149.532 L 136.593 149.941 L 139.131 150.35 L 141.647 150.742 L 143.972 150.951 L 146.509 151.152 L 148.809 151.544 L 151.136 151.744 L 153.463 151.953 L 155.763 152.153 L 158.09 152.362 L 160.416 152.362 L 162.734 152.546 L 165.043 152.546 L 167.15 152.755 L 169.477 152.755 L 171.584 152.755 L 173.911 152.755 L 176 152.755 L 178.116 152.546 L 180.223 152.546 L 182.339 152.362 L 184.446 152.362 L 186.553 152.153 L 188.459 151.953 L 190.566 151.744 L 192.445 151.544 L 194.552 151.152 L 196.448 150.951 L 198.353 150.534 L 200.25 150.35 L 202.146 149.941 L 204.043 149.532 L 205.939 149.139 L 207.625 148.53 L 209.521 148.137 L 211.207 147.519 L 213.103 147.135 L 214.789 146.517 L 216.475 145.925 L 218.16 145.332 L 219.864 144.714 L 221.549 143.912 L 223.235 143.32 L 224.71 142.501 L 226.396 141.7 L 227.862 141.107 L 229.548 140.105 L 231.023 139.303 L 232.515 138.485 L 233.981 137.475 L 235.456 136.682 L 236.923 135.671 L 238.187 134.669 L 239.679 133.667 L 240.935 132.657 L 242.41 131.455 L 243.683 130.444 L 244.947 129.259 L 247.265 131.655 L 245.992 132.866 L 244.517 134.077 L 243.261 135.287 L 241.787 136.289 L 240.294 137.291 L 238.828 138.301 L 237.353 139.303 L 235.878 140.305 L 234.412 141.316 L 232.708 142.318 L 231.233 143.119 L 229.548 143.912 L 228.073 144.714 L 226.396 145.516 L 224.71 146.334 L 223.024 147.135 L 221.339 147.728 L 219.442 148.346 L 217.756 149.139 L 216.071 149.74 L 214.174 150.35 L 212.278 150.742 L 210.592 151.36 L 208.696 151.744 L 206.791 152.362 L 204.894 152.755 L 202.998 153.164 L 200.891 153.548 L 198.985 153.957 L 197.089 154.166 L 194.982 154.558 L 192.866 154.759 L 190.97 154.967 L 188.862 155.168 L 186.773 155.376 L 184.657 155.56 L 182.55 155.769 L 180.434 155.769 L 178.327 155.969 L 176 155.969 L 173.911 155.969 L 171.584 155.969 L 169.477 155.969 L 167.15 155.969 L 164.85 155.969 L 162.523 155.769 L 160.197 155.769 L 157.879 155.56 L 155.57 155.376 L 153.252 155.376 L 150.925 154.967 L 148.406 154.759 L 146.079 154.558 L 143.545 154.375 L 141.22 153.957 L 138.704 153.548 L 136.167 153.364 L 133.65 152.955 L 131.112 152.546 L 128.575 152.153 L 126.059 151.744 L 123.521 151.152 L 120.983 150.742 L 118.253 150.15 L 120.365 148.53 Z  M 116.995 148.53 L 116.995 146.517 L 119.107 146.927 L 116.995 148.53 Z " fill="rgb(56,52,48)"/><path d=" M 151.988 186.521 L 152.392 323.53 L 252.111 364.323 L 349.926 323.321 L 348.03 184.901 L 340.655 186.103 L 333.271 186.905 L 326.3 187.314 L 319.346 187.523 L 312.393 187.314 L 305.87 186.905 L 299.32 186.103 L 293.007 184.901 L 286.888 183.506 L 280.768 181.678 L 274.86 179.666 L 269.188 177.478 L 263.709 174.848 L 258.231 171.842 L 252.946 168.828 L 247.888 165.421 L 244.096 168.227 L 239.89 171.04 L 235.456 173.645 L 230.619 176.058 L 225.535 178.48 L 220.057 180.492 L 214.368 182.496 L 208.476 184.099 L 202.357 185.51 L 195.834 186.704 L 189.073 187.523 L 182.12 187.915 L 174.955 188.115 L 167.58 187.915 L 159.775 187.523 L 151.988 186.521 Z " fill-rule="evenodd" fill="rgb(0,146,221)"/><path d=" M 151.777 325.149 L 150.706 323.53 L 150.091 186.521 L 153.673 186.521 L 154.297 323.53 L 151.777 325.149 Z  M 151.777 325.149 L 150.706 324.732 L 150.706 323.53 L 151.777 325.149 Z  M 252.752 365.922 L 251.471 365.922 L 151.777 325.149 L 153.252 321.926 L 252.752 362.909 L 252.752 365.922 Z  M 252.752 365.922 L 252.111 366.128 L 251.471 365.922 L 252.752 365.922 Z  M 351.612 323.321 L 350.549 324.941 L 252.752 365.922 L 251.471 362.909 L 349.074 321.926 L 351.612 323.321 Z  M 351.612 323.321 L 351.612 324.532 L 350.549 324.941 L 351.612 323.321 Z  M 347.819 183.298 L 349.926 184.901 L 351.612 323.321 L 348.223 323.321 L 346.326 184.901 L 347.819 183.298 Z  M 347.819 183.298 L 349.715 182.888 L 349.926 184.901 L 347.819 183.298 Z  M 248.951 166.607 L 246.844 164.01 L 248.951 164.01 L 250.215 164.803 L 251.471 165.605 L 252.752 166.607 L 254.008 167.433 L 255.263 168.227 L 256.528 169.028 L 257.801 169.83 L 259.065 170.448 L 260.531 171.241 L 261.813 172.042 L 263.068 172.635 L 264.543 173.253 L 265.799 174.055 L 267.292 174.647 L 268.547 175.265 L 270.022 175.858 L 271.278 176.468 L 272.77 177.069 L 274.245 177.662 L 275.501 178.271 L 276.976 178.664 L 278.468 179.281 L 279.943 179.666 L 281.409 180.283 L 282.884 180.676 L 284.35 181.085 L 285.825 181.494 L 287.318 181.887 L 288.784 182.296 L 290.259 182.68 L 291.945 182.888 L 293.42 183.298 L 294.912 183.69 L 296.589 183.89 L 298.064 184.099 L 299.539 184.508 L 301.225 184.692 L 302.902 184.901 L 304.377 185.101 L 306.063 185.31 L 307.555 185.31 L 309.241 185.51 L 310.927 185.51 L 312.612 185.694 L 314.289 185.694 L 315.975 185.903 L 317.661 185.903 L 319.346 185.903 L 321.032 185.903 L 322.718 185.903 L 324.403 185.694 L 326.107 185.694 L 327.986 185.694 L 329.689 185.51 L 331.375 185.31 L 333.271 185.31 L 334.957 185.101 L 336.853 184.901 L 338.539 184.692 L 340.435 184.3 L 342.121 184.099 L 344.017 183.89 L 345.914 183.506 L 347.819 183.298 L 348.434 186.521 L 346.537 186.905 L 344.641 187.113 L 342.744 187.523 L 340.839 187.706 L 338.943 187.915 L 337.257 188.115 L 335.361 188.324 L 333.464 188.524 L 331.778 188.708 L 329.882 188.917 L 328.196 188.917 L 326.3 189.117 L 324.614 189.117 L 322.718 189.117 L 321.032 189.117 L 319.346 189.117 L 317.45 189.117 L 315.764 189.117 L 314.079 189.117 L 312.393 189.117 L 310.707 188.917 L 309.021 188.917 L 307.345 188.708 L 305.659 188.524 L 303.973 188.324 L 302.287 188.115 L 300.795 187.915 L 299.109 187.706 L 297.423 187.523 L 295.957 187.113 L 294.272 186.905 L 292.586 186.521 L 291.111 186.312 L 289.425 185.903 L 287.933 185.51 L 286.466 185.101 L 284.781 184.692 L 283.306 184.3 L 281.839 183.89 L 280.347 183.298 L 278.872 182.888 L 277.186 182.296 L 275.72 181.887 L 274.245 181.285 L 272.77 180.676 L 271.497 180.083 L 270.022 179.482 L 268.547 178.872 L 267.081 178.271 L 265.606 177.662 L 264.333 177.069 L 262.858 176.267 L 261.383 175.649 L 260.127 174.848 L 258.635 174.055 L 257.379 173.453 L 256.115 172.635 L 254.649 171.842 L 253.367 171.04 L 252.111 170.239 L 250.636 169.237 L 249.355 168.435 L 248.099 167.617 L 246.844 166.607 L 248.951 166.607 Z  M 246.844 164.01 L 247.888 163.208 L 248.951 164.01 L 246.844 164.01 Z  M 153.673 186.521 L 150.091 186.521 L 152.181 184.901 L 154.077 185.101 L 156.193 185.31 L 158.09 185.51 L 159.986 185.694 L 161.882 185.903 L 163.779 186.103 L 165.684 186.312 L 167.58 186.312 L 169.477 186.521 L 171.373 186.521 L 173.059 186.521 L 174.955 186.521 L 176.852 186.521 L 178.538 186.521 L 180.223 186.521 L 182.12 186.312 L 183.805 186.312 L 185.491 186.103 L 187.177 185.903 L 188.862 185.903 L 190.566 185.694 L 192.251 185.51 L 193.937 185.31 L 195.623 185.101 L 197.309 184.692 L 198.775 184.508 L 200.46 184.3 L 201.935 183.89 L 203.621 183.506 L 205.114 183.298 L 206.58 182.888 L 208.055 182.496 L 209.521 182.087 L 210.996 181.678 L 212.489 181.285 L 213.964 180.876 L 215.43 180.492 L 216.685 179.874 L 218.16 179.482 L 219.442 179.073 L 220.908 178.48 L 222.173 178.071 L 223.446 177.478 L 224.71 176.86 L 225.965 176.468 L 227.221 175.858 L 228.503 175.265 L 229.758 174.647 L 231.023 174.055 L 232.085 173.453 L 233.34 172.844 L 234.412 172.251 L 235.667 171.633 L 236.712 170.832 L 237.783 170.239 L 238.828 169.621 L 239.89 169.028 L 240.935 168.227 L 241.98 167.617 L 243.051 166.815 L 243.876 166.223 L 244.947 165.421 L 245.772 164.803 L 246.844 164.01 L 248.951 166.607 L 248.099 167.433 L 247.054 168.026 L 245.992 168.828 L 245.158 169.621 L 244.096 170.239 L 243.051 171.04 L 241.98 171.633 L 240.724 172.451 L 239.679 173.044 L 238.608 173.846 L 237.353 174.464 L 236.308 175.057 L 235.026 175.649 L 233.771 176.468 L 232.708 177.069 L 231.444 177.662 L 230.189 178.271 L 228.933 178.872 L 227.44 179.482 L 226.176 180.083 L 224.921 180.492 L 223.446 181.085 L 222.173 181.678 L 220.698 182.087 L 219.442 182.68 L 217.967 183.097 L 216.475 183.69 L 215.008 184.099 L 213.533 184.508 L 212.058 184.901 L 210.592 185.31 L 208.88 185.694 L 207.414 186.103 L 205.939 186.521 L 204.253 186.905 L 202.787 187.113 L 201.101 187.523 L 199.416 187.706 L 197.73 188.115 L 196.044 188.324 L 194.552 188.524 L 192.655 188.708 L 190.97 188.917 L 189.284 189.117 L 187.598 189.326 L 185.921 189.526 L 184.016 189.526 L 182.339 189.718 L 180.434 189.718 L 178.538 189.718 L 176.852 189.919 L 174.955 189.919 L 173.059 189.919 L 171.163 189.718 L 169.266 189.718 L 167.361 189.718 L 165.465 189.526 L 163.568 189.526 L 161.672 189.326 L 159.556 189.117 L 157.659 188.917 L 155.763 188.708 L 153.673 188.524 L 151.566 188.115 L 153.673 186.521 Z  M 150.091 186.521 L 150.091 184.508 L 152.181 184.901 L 150.091 186.521 Z " fill="rgb(31,26,23)"/><path d=" M 151.988 186.521 L 152.392 323.53 L 251.901 362.909 L 349.285 323.53 L 348.03 184.901 L 340.655 186.103 L 333.271 186.905 L 326.3 187.314 L 319.346 187.523 L 312.393 187.314 L 305.87 186.905 L 299.32 186.103 L 293.007 184.901 L 286.888 183.506 L 280.768 181.678 L 274.86 179.666 L 269.188 177.478 L 263.709 174.848 L 258.231 171.842 L 252.946 168.828 L 247.888 165.421 L 244.096 168.227 L 239.89 171.04 L 235.456 173.645 L 230.619 176.058 L 225.535 178.48 L 220.057 180.492 L 214.368 182.496 L 208.476 184.099 L 202.357 185.51 L 195.834 186.704 L 189.073 187.523 L 182.12 187.915 L 174.955 188.115 L 167.58 187.915 L 159.775 187.523 L 151.988 186.521 Z " fill-rule="evenodd" fill="rgb(0,146,221)"/><path d=" M 151.777 325.149 L 150.706 323.53 L 150.091 186.521 L 153.673 186.521 L 154.297 323.53 L 151.777 325.149 Z  M 151.777 325.149 L 150.706 324.732 L 150.706 323.53 L 151.777 325.149 Z  M 252.752 364.508 L 251.26 364.508 L 151.777 325.149 L 153.252 321.926 L 252.752 361.31 L 252.752 364.508 Z  M 252.752 364.508 L 251.901 364.712 L 251.26 364.508 L 252.752 364.508 Z  M 350.971 323.53 L 349.926 325.149 L 252.752 364.508 L 251.26 361.495 L 348.644 322.135 L 350.971 323.53 Z  M 350.971 323.53 L 350.971 324.732 L 349.926 325.149 L 350.971 323.53 Z  M 347.819 183.298 L 349.926 184.901 L 350.971 323.53 L 347.599 323.73 L 346.326 184.901 L 347.819 183.298 Z  M 347.819 183.298 L 349.715 182.888 L 349.926 184.901 L 347.819 183.298 Z  M 248.951 166.607 L 246.844 164.01 L 248.951 164.01 L 250.215 164.803 L 251.471 165.605 L 252.752 166.607 L 254.008 167.433 L 255.263 168.227 L 256.528 169.028 L 257.801 169.83 L 259.065 170.448 L 260.531 171.241 L 261.813 172.042 L 263.068 172.635 L 264.543 173.253 L 265.799 174.055 L 267.292 174.647 L 268.547 175.265 L 270.022 175.858 L 271.278 176.468 L 272.77 177.069 L 274.245 177.662 L 275.501 178.271 L 276.976 178.664 L 278.468 179.281 L 279.943 179.666 L 281.409 180.283 L 282.884 180.676 L 284.35 181.085 L 285.825 181.494 L 287.318 181.887 L 288.784 182.296 L 290.259 182.68 L 291.945 182.888 L 293.42 183.298 L 294.912 183.69 L 296.589 183.89 L 298.064 184.099 L 299.539 184.508 L 301.225 184.692 L 302.902 184.901 L 304.377 185.101 L 306.063 185.31 L 307.555 185.31 L 309.241 185.51 L 310.927 185.51 L 312.612 185.694 L 314.289 185.694 L 315.975 185.903 L 317.661 185.903 L 319.346 185.903 L 321.032 185.903 L 322.718 185.903 L 324.403 185.694 L 326.107 185.694 L 327.986 185.694 L 329.689 185.51 L 331.375 185.31 L 333.271 185.31 L 334.957 185.101 L 336.853 184.901 L 338.539 184.692 L 340.435 184.3 L 342.121 184.099 L 344.017 183.89 L 345.914 183.506 L 347.819 183.298 L 348.434 186.521 L 346.537 186.905 L 344.641 187.113 L 342.744 187.523 L 340.839 187.706 L 338.943 187.915 L 337.257 188.115 L 335.361 188.324 L 333.464 188.524 L 331.778 188.708 L 329.882 188.917 L 328.196 188.917 L 326.3 189.117 L 324.614 189.117 L 322.718 189.117 L 321.032 189.117 L 319.346 189.117 L 317.45 189.117 L 315.764 189.117 L 314.079 189.117 L 312.393 189.117 L 310.707 188.917 L 309.021 188.917 L 307.345 188.708 L 305.659 188.524 L 303.973 188.324 L 302.287 188.115 L 300.795 187.915 L 299.109 187.706 L 297.423 187.523 L 295.957 187.113 L 294.272 186.905 L 292.586 186.521 L 291.111 186.312 L 289.425 185.903 L 287.933 185.51 L 286.466 185.101 L 284.781 184.692 L 283.306 184.3 L 281.839 183.89 L 280.347 183.298 L 278.872 182.888 L 277.186 182.296 L 275.72 181.887 L 274.245 181.285 L 272.77 180.676 L 271.497 180.083 L 270.022 179.482 L 268.547 178.872 L 267.081 178.271 L 265.606 177.662 L 264.333 177.069 L 262.858 176.267 L 261.383 175.649 L 260.127 174.848 L 258.635 174.055 L 257.379 173.453 L 256.115 172.635 L 254.649 171.842 L 253.367 171.04 L 252.111 170.239 L 250.636 169.237 L 249.355 168.435 L 248.099 167.617 L 246.844 166.607 L 248.951 166.607 Z  M 246.844 164.01 L 247.888 163.208 L 248.951 164.01 L 246.844 164.01 Z  M 153.673 186.521 L 150.091 186.521 L 152.181 184.901 L 154.077 185.101 L 156.193 185.31 L 158.09 185.51 L 159.986 185.694 L 161.882 185.903 L 163.779 186.103 L 165.684 186.312 L 167.58 186.312 L 169.477 186.521 L 171.373 186.521 L 173.059 186.521 L 174.955 186.521 L 176.852 186.521 L 178.538 186.521 L 180.223 186.521 L 182.12 186.312 L 183.805 186.312 L 185.491 186.103 L 187.177 185.903 L 188.862 185.903 L 190.566 185.694 L 192.251 185.51 L 193.937 185.31 L 195.623 185.101 L 197.309 184.692 L 198.775 184.508 L 200.46 184.3 L 201.935 183.89 L 203.621 183.506 L 205.114 183.298 L 206.58 182.888 L 208.055 182.496 L 209.521 182.087 L 210.996 181.678 L 212.489 181.285 L 213.964 180.876 L 215.43 180.492 L 216.685 179.874 L 218.16 179.482 L 219.442 179.073 L 220.908 178.48 L 222.173 178.071 L 223.446 177.478 L 224.71 176.86 L 225.965 176.468 L 227.221 175.858 L 228.503 175.265 L 229.758 174.647 L 231.023 174.055 L 232.085 173.453 L 233.34 172.844 L 234.412 172.251 L 235.667 171.633 L 236.712 170.832 L 237.783 170.239 L 238.828 169.621 L 239.89 169.028 L 240.935 168.227 L 241.98 167.617 L 243.051 166.815 L 243.876 166.223 L 244.947 165.421 L 245.772 164.803 L 246.844 164.01 L 248.951 166.607 L 248.099 167.433 L 247.054 168.026 L 245.992 168.828 L 245.158 169.621 L 244.096 170.239 L 243.051 171.04 L 241.98 171.633 L 240.724 172.451 L 239.679 173.044 L 238.608 173.846 L 237.353 174.464 L 236.308 175.057 L 235.026 175.649 L 233.771 176.468 L 232.708 177.069 L 231.444 177.662 L 230.189 178.271 L 228.933 178.872 L 227.44 179.482 L 226.176 180.083 L 224.921 180.492 L 223.446 181.085 L 222.173 181.678 L 220.698 182.087 L 219.442 182.68 L 217.967 183.097 L 216.475 183.69 L 215.008 184.099 L 213.533 184.508 L 212.058 184.901 L 210.592 185.31 L 208.88 185.694 L 207.414 186.103 L 205.939 186.521 L 204.253 186.905 L 202.787 187.113 L 201.101 187.523 L 199.416 187.706 L 197.73 188.115 L 196.044 188.324 L 194.552 188.524 L 192.655 188.708 L 190.97 188.917 L 189.284 189.117 L 187.598 189.326 L 185.921 189.526 L 184.016 189.526 L 182.339 189.718 L 180.434 189.718 L 178.538 189.718 L 176.852 189.919 L 174.955 189.919 L 173.059 189.919 L 171.163 189.718 L 169.266 189.718 L 167.361 189.718 L 165.465 189.526 L 163.568 189.526 L 161.672 189.326 L 159.556 189.117 L 157.659 188.917 L 155.763 188.708 L 153.673 188.524 L 151.566 188.115 L 153.673 186.521 Z  M 150.091 186.521 L 150.091 184.508 L 152.181 184.901 L 150.091 186.521 Z " fill="rgb(31,26,23)"/><path d=" M 349.285 323.53 L 349.926 302.038 L 152.611 303.048 L 152.611 321.517 L 251.901 362.909 L 349.285 323.53 Z " fill-rule="evenodd" fill="rgb(102,82,90)"/><path d=" M 349.619 323.847 L 350.26 302.355 L 152.936 303.365 L 152.936 321.835 L 252.226 363.226 L 349.619 323.847 Z " fill="none" vector-effect="non-scaling-stroke" stroke-width="0.778" stroke="rgb(31,26,23)" stroke-linejoin="miter" stroke-linecap="square" stroke-miterlimit="3"/><path d=" M 285.202 312.274 L 260.531 326.953 L 259.486 328.347 L 259.065 329.55 L 258.845 330.56 L 258.845 331.562 L 259.276 332.564 L 260.127 333.365 L 261.172 333.983 L 262.647 334.576 L 264.333 335.194 L 265.606 335.578 L 266.44 335.987 L 267.081 336.588 L 267.292 337.382 L 267.292 338.392 L 266.87 340.012 L 266.01 342.016 L 265.395 342.817 L 264.543 343.619 L 264.113 344.621 L 263.709 345.422 L 263.499 346.241 L 263.288 347.243 L 263.288 348.044 L 263.499 349.046 L 263.709 349.849 L 264.113 350.649 L 264.543 351.654 L 265.184 352.454 L 266.87 354.462 L 268.977 356.287 L 251.901 362.909 L 230.619 354.667 L 233.34 346.241 L 235.667 345.239 L 238.187 344.42 L 238.828 344.028 L 239.46 343.619 L 239.89 343.026 L 240.294 342.408 L 240.935 341.014 L 241.365 339.394 L 241.576 337.59 L 241.576 335.787 L 241.365 333.775 L 241.146 331.771 L 243.472 328.957 L 245.772 326.335 L 247.888 323.53 L 250.215 320.925 L 254.438 318.912 L 258.02 317.292 L 261.172 315.698 L 263.903 314.687 L 281.62 308.868 L 285.202 312.274 Z " fill-rule="evenodd" fill="rgb(0,146,221)"/><path d=" M 259.697 326.335 L 260.127 326.151 L 284.781 311.473 L 285.632 312.884 L 260.961 327.546 L 259.697 326.335 Z  M 259.697 326.335 L 259.917 326.335 L 260.127 326.151 L 259.697 326.335 Z  M 262.858 333.775 L 262.217 335.378 L 262.428 335.378 L 261.602 334.985 L 260.751 334.785 L 260.32 334.576 L 260.127 334.367 L 259.697 334.184 L 259.486 333.983 L 259.276 333.775 L 259.065 333.574 L 258.845 333.182 L 258.635 332.973 L 258.424 332.773 L 258.231 332.364 L 258.02 332.18 L 258.02 331.771 L 258.02 331.562 L 257.801 331.17 L 257.801 330.969 L 257.801 330.56 L 258.02 330.168 L 258.02 329.967 L 258.02 329.55 L 258.231 329.166 L 258.424 328.548 L 258.845 327.955 L 259.276 327.153 L 259.697 326.335 L 261.172 327.337 L 260.751 328.155 L 260.32 328.756 L 260.127 329.166 L 259.917 329.758 L 259.697 329.967 L 259.697 330.168 L 259.697 330.351 L 259.697 330.56 L 259.697 330.76 L 259.697 330.969 L 259.697 331.17 L 259.697 331.362 L 259.697 331.562 L 259.917 331.771 L 259.917 331.971 L 260.127 331.971 L 260.127 332.18 L 260.32 332.364 L 260.531 332.564 L 260.531 332.564 L 260.751 332.773 L 260.961 332.973 L 261.383 333.182 L 261.602 333.182 L 262.217 333.574 L 262.858 333.775 L 262.858 333.775 Z  M 262.858 333.775 L 262.858 333.775 L 262.858 333.775 L 262.858 333.775 Z  M 266.651 342.609 L 265.395 341.406 L 265.184 341.815 L 265.606 340.605 L 266.01 339.603 L 266.229 338.801 L 266.44 338.208 L 266.44 337.791 L 266.44 337.382 L 266.44 337.198 L 266.44 337.198 L 266.44 336.998 L 266.44 336.998 L 266.229 336.998 L 266.229 336.998 L 266.229 336.789 L 266.01 336.789 L 265.799 336.588 L 265.395 336.38 L 263.903 335.987 L 262.217 335.378 L 262.858 333.775 L 264.543 334.367 L 266.01 334.785 L 266.44 334.985 L 267.081 335.378 L 267.292 335.578 L 267.485 335.787 L 267.695 335.987 L 267.915 336.196 L 267.915 336.38 L 268.126 336.789 L 268.126 336.998 L 268.126 337.382 L 268.126 338 L 268.126 338.592 L 267.915 339.394 L 267.695 340.212 L 267.292 341.222 L 266.87 342.224 L 266.651 342.609 Z  M 266.87 342.224 L 266.87 342.408 L 266.651 342.609 L 266.87 342.224 Z  M 269.188 357.087 L 268.547 355.467 L 268.336 356.881 L 267.695 356.471 L 267.292 355.877 L 266.651 355.467 L 266.229 354.872 L 265.799 354.462 L 265.184 354.073 L 264.965 353.458 L 264.543 353.068 L 264.113 352.454 L 263.903 352.064 L 263.499 351.654 L 263.288 351.059 L 263.068 350.649 L 262.858 350.055 L 262.647 349.647 L 262.647 349.046 L 262.428 348.637 L 262.428 348.044 L 262.428 347.635 L 262.428 347.042 L 262.428 346.633 L 262.647 346.04 L 262.647 345.623 L 262.858 345.239 L 263.068 344.621 L 263.288 344.228 L 263.499 343.619 L 263.903 343.226 L 264.333 342.817 L 264.543 342.408 L 264.965 341.815 L 265.395 341.406 L 266.651 342.609 L 266.229 343.026 L 266.01 343.41 L 265.606 343.819 L 265.395 344.228 L 265.184 344.621 L 264.965 345.03 L 264.754 345.422 L 264.543 345.623 L 264.333 346.04 L 264.333 346.424 L 264.113 346.833 L 264.113 347.243 L 264.113 347.635 L 264.113 348.044 L 264.113 348.437 L 264.333 348.846 L 264.333 349.255 L 264.543 349.647 L 264.754 350.055 L 264.965 350.444 L 265.184 350.854 L 265.395 351.264 L 265.606 351.654 L 265.799 352.064 L 266.229 352.454 L 266.651 352.864 L 267.081 353.274 L 267.485 353.868 L 267.915 354.278 L 268.336 354.667 L 268.977 355.077 L 269.381 355.672 L 269.188 357.087 Z  M 269.381 355.672 L 270.663 356.471 L 269.188 357.087 L 269.381 355.672 Z  M 251.681 363.708 L 251.681 362.109 L 268.547 355.467 L 269.188 357.087 L 252.322 363.708 L 251.681 363.708 Z  M 252.322 363.708 L 251.901 363.913 L 251.681 363.708 L 252.322 363.708 Z  M 229.758 354.462 L 231.023 353.868 L 252.322 362.109 L 251.681 363.708 L 230.399 355.467 L 229.758 354.462 Z  M 230.399 355.467 L 229.548 355.077 L 229.758 354.462 L 230.399 355.467 Z  M 232.919 345.422 L 234.201 346.424 L 231.444 354.872 L 229.758 354.462 L 232.515 345.831 L 232.919 345.422 Z  M 232.515 345.831 L 232.515 345.422 L 232.919 345.422 L 232.515 345.831 Z  M 237.783 343.619 L 238.398 345.239 L 238.398 345.239 L 237.142 345.623 L 236.097 346.04 L 234.815 346.424 L 233.56 346.833 L 232.919 345.422 L 234.201 345.03 L 235.456 344.42 L 236.501 344.028 L 237.783 343.619 L 237.783 343.619 Z  M 238.398 345.239 L 238.398 345.239 L 238.398 345.239 L 238.398 345.239 Z  M 240.513 331.362 L 241.787 332.364 L 241.98 331.771 L 242.19 333.775 L 242.41 335.787 L 242.41 336.789 L 242.41 337.791 L 242.41 338.592 L 242.19 339.603 L 241.98 340.396 L 241.787 341.222 L 241.787 341.607 L 241.576 342.016 L 241.365 342.408 L 241.146 342.817 L 240.935 343.226 L 240.513 343.619 L 240.294 343.819 L 240.083 344.228 L 239.679 344.42 L 239.249 344.83 L 238.828 345.03 L 238.398 345.239 L 237.783 343.619 L 237.994 343.619 L 238.187 343.41 L 238.608 343.226 L 238.828 343.026 L 239.038 342.817 L 239.249 342.609 L 239.46 342.224 L 239.679 342.016 L 239.679 341.815 L 239.89 341.406 L 240.083 341.222 L 240.083 340.805 L 240.294 340.012 L 240.513 339.394 L 240.513 338.592 L 240.724 337.59 L 240.724 336.789 L 240.724 335.787 L 240.513 333.775 L 240.294 331.771 L 240.513 331.362 Z  M 240.294 331.771 L 240.294 331.562 L 240.513 331.362 L 240.294 331.771 Z  M 249.785 320.123 L 250.636 321.517 L 250.856 321.309 L 249.785 322.728 L 248.74 324.139 L 247.458 325.534 L 246.413 326.744 L 245.369 328.155 L 244.096 329.55 L 243.051 330.969 L 241.787 332.364 L 240.513 331.362 L 241.576 329.967 L 242.831 328.548 L 243.876 327.153 L 244.947 325.742 L 246.203 324.532 L 247.265 323.137 L 248.529 321.718 L 249.574 320.307 L 249.785 320.123 Z  M 249.574 320.307 L 249.785 320.123 L 249.785 320.123 L 249.574 320.307 Z  M 263.709 313.894 L 264.333 315.489 L 264.333 315.289 L 263.068 315.898 L 261.602 316.491 L 260.127 317.292 L 258.424 317.91 L 256.738 318.712 L 254.842 319.714 L 252.752 320.515 L 250.636 321.517 L 249.785 320.123 L 251.901 319.121 L 254.008 318.111 L 255.904 317.292 L 257.59 316.491 L 259.276 315.698 L 260.961 315.096 L 262.217 314.487 L 263.709 313.894 L 263.709 313.894 Z  M 263.709 313.894 L 263.709 313.894 L 263.709 313.894 L 263.709 313.894 Z  M 282.243 308.25 L 282.05 309.46 L 264.333 315.489 L 263.709 313.894 L 281.409 308.066 L 282.243 308.25 Z  M 281.409 308.066 L 282.05 307.866 L 282.243 308.25 L 281.409 308.066 Z  M 285.632 312.884 L 284.57 312.884 L 281.199 309.26 L 282.243 308.25 L 285.825 311.673 L 285.632 312.884 Z  M 285.825 311.673 L 286.677 312.475 L 285.632 312.884 L 285.825 311.673 Z " fill="rgb(31,26,23)"/><path d=" M 151.988 318.111 L 182.971 304.05 L 182.971 317.292 L 212.893 302.839 L 221.128 319.505 L 236.501 305.653 L 241.98 323.73 L 256.949 308.659 L 258.424 309.26 L 259.917 309.87 L 261.383 310.262 L 262.858 310.671 L 264.333 310.88 L 265.799 311.08 L 267.081 311.08 L 268.547 311.08 L 271.278 310.671 L 274.034 309.87 L 276.572 308.868 L 279.302 307.457 L 291.734 320.307 L 303.543 307.064 L 317.661 322.519 L 322.094 308.659 L 347.819 308.25 L 347.599 301.036 L 341.48 296.61 L 335.571 292.177 L 329.689 287.568 L 323.78 282.95 L 312.182 273.507 L 300.795 263.454 L 289.425 253.209 L 278.468 242.772 L 267.695 231.725 L 256.949 220.671 L 256.334 222.065 L 255.694 223.276 L 255.263 224.486 L 254.842 225.488 L 254.649 227.701 L 254.842 229.897 L 255.483 233.913 L 255.904 237.938 L 254.842 234.731 L 254.008 231.517 L 252.752 228.895 L 251.471 226.29 L 250.215 224.077 L 248.951 222.065 L 247.265 220.47 L 245.772 219.051 L 234.605 230.515 L 223.446 241.561 L 212.058 252.199 L 200.46 262.452 L 188.669 272.497 L 176.641 282.341 L 170.522 286.975 L 164.42 291.584 L 158.09 296.201 L 151.988 300.627 L 151.988 318.111 Z " fill-rule="evenodd" fill="rgb(255,255,255)"/><path d=" M 184.876 304.05 L 183.805 305.653 L 152.822 319.505 L 151.347 316.491 L 182.339 302.43 L 184.876 304.05 Z  M 182.339 302.43 L 184.876 301.428 L 184.876 304.05 L 182.339 302.43 Z  M 183.805 318.712 L 181.294 317.292 L 181.294 304.05 L 184.876 304.05 L 184.876 317.292 L 183.805 318.712 Z  M 183.805 318.712 L 181.294 319.914 L 181.294 317.292 L 183.805 318.712 Z  M 214.578 302.221 L 213.744 304.442 L 183.805 318.712 L 182.339 315.698 L 212.278 301.428 L 214.578 302.221 Z  M 212.278 301.428 L 213.744 300.627 L 214.578 302.221 L 212.278 301.428 Z  M 222.173 320.716 L 219.442 320.307 L 211.426 303.641 L 214.578 302.221 L 222.594 318.912 L 222.173 320.716 Z  M 222.173 320.716 L 220.487 322.319 L 219.442 320.307 L 222.173 320.716 Z  M 238.187 305.052 L 237.563 306.855 L 222.173 320.716 L 219.864 318.294 L 235.246 304.442 L 238.187 305.052 Z  M 235.246 304.442 L 237.353 302.43 L 238.187 305.052 L 235.246 304.442 Z  M 243.261 324.732 L 240.294 324.139 L 234.815 306.062 L 238.187 305.052 L 243.683 323.137 L 243.261 324.732 Z  M 243.261 324.732 L 241.365 326.953 L 240.294 324.139 L 243.261 324.732 Z  M 257.801 307.064 L 258.231 309.669 L 243.261 324.732 L 240.724 322.519 L 255.694 307.457 L 257.801 307.064 Z  M 255.694 307.457 L 256.738 306.446 L 257.801 307.064 L 255.694 307.457 Z  M 280.558 306.246 L 278.038 308.659 L 280.154 308.868 L 278.872 309.669 L 277.397 310.262 L 276.765 310.671 L 275.931 310.88 L 275.29 311.08 L 274.675 311.473 L 273.815 311.673 L 273.183 311.882 L 272.349 312.082 L 271.708 312.274 L 270.874 312.475 L 270.233 312.475 L 269.381 312.683 L 268.767 312.683 L 267.915 312.683 L 267.292 312.683 L 266.44 312.683 L 265.606 312.683 L 264.965 312.683 L 264.113 312.683 L 263.288 312.475 L 262.647 312.274 L 261.813 312.082 L 260.961 311.882 L 260.127 311.673 L 259.486 311.473 L 258.635 311.08 L 257.801 310.88 L 256.949 310.471 L 256.115 310.078 L 257.801 307.064 L 258.635 307.457 L 259.276 307.866 L 259.917 308.066 L 260.531 308.25 L 261.383 308.459 L 262.006 308.659 L 262.647 308.868 L 263.288 309.076 L 263.903 309.26 L 264.543 309.26 L 265.184 309.26 L 265.799 309.46 L 266.44 309.46 L 267.081 309.46 L 267.695 309.46 L 268.336 309.26 L 268.977 309.26 L 269.592 309.26 L 270.233 309.076 L 270.874 309.076 L 271.497 308.868 L 272.138 308.659 L 272.77 308.459 L 273.393 308.25 L 274.034 308.066 L 274.675 307.866 L 275.29 307.457 L 275.931 307.248 L 277.186 306.655 L 278.468 306.062 L 280.558 306.246 Z  M 278.468 306.062 L 279.513 305.236 L 280.558 306.246 L 278.468 306.062 Z  M 293.2 321.309 L 290.47 321.309 L 278.038 308.659 L 280.558 306.246 L 293.007 319.121 L 293.2 321.309 Z  M 293.2 321.309 L 291.945 322.728 L 290.47 321.309 L 293.2 321.309 Z  M 304.807 306.062 L 304.807 308.066 L 293.2 321.309 L 290.47 319.121 L 302.287 306.062 L 304.807 306.062 Z  M 302.287 306.062 L 303.543 304.442 L 304.807 306.062 L 302.287 306.062 Z  M 319.346 322.928 L 316.405 323.73 L 302.287 308.25 L 304.807 306.062 L 318.916 321.517 L 319.346 322.928 Z  M 319.346 322.928 L 318.512 325.943 L 316.405 323.73 L 319.346 322.928 Z  M 322.094 306.855 L 323.78 309.076 L 319.346 322.928 L 315.975 322.135 L 320.417 308.066 L 322.094 306.855 Z  M 320.417 308.066 L 320.821 306.855 L 322.094 306.855 L 320.417 308.066 Z  M 349.505 308.25 L 347.819 309.87 L 322.094 310.262 L 322.094 306.855 L 347.819 306.655 L 349.505 308.25 Z  M 349.505 308.25 L 349.505 309.87 L 347.819 309.87 L 349.505 308.25 Z  M 348.644 299.625 L 349.285 301.036 L 349.505 308.25 L 346.133 308.25 L 345.914 301.036 L 348.644 299.625 Z  M 348.644 299.625 L 349.285 300.217 L 349.285 301.036 L 348.644 299.625 Z  M 258.424 221.472 L 255.483 219.852 L 258.424 219.46 L 260.961 222.274 L 263.709 225.079 L 266.229 227.885 L 268.977 230.715 L 271.708 233.32 L 274.245 236.126 L 276.976 238.756 L 279.724 241.561 L 282.454 244.166 L 285.202 246.788 L 287.933 249.393 L 290.689 251.998 L 293.42 254.62 L 296.379 257.225 L 299.109 259.847 L 301.857 262.252 L 304.807 264.873 L 307.555 267.27 L 310.496 269.691 L 313.244 272.088 L 316.194 274.509 L 318.916 276.93 L 321.884 279.327 L 324.825 281.748 L 327.792 283.961 L 330.734 286.357 L 333.675 288.57 L 336.642 290.991 L 339.584 293.187 L 342.551 295.4 L 345.703 297.612 L 348.644 299.625 L 346.537 302.43 L 343.596 300.217 L 340.435 298.021 L 337.476 295.809 L 334.526 293.596 L 331.585 291.175 L 328.407 288.979 L 325.466 286.566 L 322.507 284.345 L 319.557 281.948 L 316.827 279.527 L 313.868 277.114 L 310.927 274.709 L 307.959 272.296 L 305.229 269.691 L 302.287 267.27 L 299.539 264.665 L 296.589 262.252 L 293.841 259.647 L 291.111 257.016 L 288.363 254.42 L 285.422 251.815 L 282.665 249.193 L 279.943 246.588 L 277.186 243.774 L 274.456 241.152 L 271.708 238.347 L 269.188 235.742 L 266.44 232.911 L 263.709 230.106 L 260.961 227.501 L 258.424 224.687 L 255.694 221.865 L 258.424 221.472 Z  M 255.483 219.852 L 256.738 217.84 L 258.424 219.46 L 255.483 219.852 Z  M 254.219 238.347 L 257.59 237.545 L 254.008 237.938 L 254.008 237.336 L 254.008 236.927 L 254.008 236.543 L 254.008 236.126 L 254.008 235.124 L 253.797 234.122 L 253.367 232.11 L 253.156 230.106 L 252.946 229.504 L 252.946 228.895 L 252.946 228.302 L 252.946 227.701 L 252.946 227.091 L 252.946 226.49 L 253.156 225.881 L 253.156 225.288 L 253.367 224.687 L 253.578 223.868 L 253.797 223.276 L 254.008 222.683 L 254.438 221.865 L 254.649 221.263 L 255.053 220.47 L 255.483 219.852 L 258.424 221.472 L 258.231 222.065 L 257.801 222.683 L 257.59 223.276 L 257.379 223.868 L 257.16 224.278 L 256.949 224.87 L 256.738 225.488 L 256.528 225.881 L 256.528 226.29 L 256.528 226.883 L 256.528 227.292 L 256.528 227.701 L 256.528 228.302 L 256.528 228.711 L 256.528 229.095 L 256.528 229.713 L 256.949 231.517 L 257.16 233.529 L 257.379 234.731 L 257.59 235.742 L 257.59 236.334 L 257.59 236.927 L 257.59 237.545 L 257.59 238.138 L 254.219 238.347 Z  M 257.59 238.138 L 256.738 249.193 L 254.219 238.347 L 257.59 238.138 Z  M 247.054 220.261 L 244.517 218.049 L 246.844 217.84 L 247.265 218.249 L 247.678 218.458 L 248.099 218.85 L 248.529 219.46 L 249.355 220.261 L 250.215 221.063 L 251.04 222.065 L 251.681 223.276 L 252.533 224.278 L 253.156 225.488 L 253.797 226.883 L 254.438 228.093 L 255.053 229.504 L 255.483 231.108 L 256.115 232.519 L 256.528 234.122 L 257.16 235.925 L 257.59 237.545 L 254.219 238.347 L 253.578 236.744 L 253.156 235.124 L 252.752 233.529 L 252.322 232.11 L 251.681 230.715 L 251.26 229.504 L 250.636 228.302 L 249.996 227.091 L 249.355 226.081 L 248.74 225.079 L 248.099 224.077 L 247.458 223.276 L 246.844 222.474 L 245.992 221.672 L 245.772 221.263 L 245.369 221.063 L 244.947 220.671 L 244.728 220.47 L 247.054 220.261 Z  M 244.517 218.049 L 245.562 216.838 L 246.844 217.84 L 244.517 218.049 Z  M 153.673 300.627 L 150.091 300.627 L 150.925 299.215 L 153.884 297.02 L 157.045 294.807 L 160.197 292.586 L 163.357 290.373 L 166.316 287.977 L 169.477 285.764 L 172.418 283.343 L 175.386 280.947 L 178.538 278.525 L 181.479 276.104 L 184.446 273.707 L 187.387 271.286 L 190.355 268.89 L 193.296 266.268 L 196.237 263.872 L 199.205 261.241 L 202.146 258.845 L 205.114 256.223 L 207.835 253.618 L 210.785 250.996 L 213.744 248.391 L 216.475 245.577 L 219.442 242.956 L 222.173 240.351 L 225.131 237.545 L 227.862 234.923 L 230.619 232.11 L 233.34 229.304 L 236.097 226.49 L 239.038 223.685 L 241.787 220.854 L 244.517 218.049 L 247.054 220.261 L 244.306 223.067 L 241.576 225.881 L 238.828 228.895 L 235.878 231.725 L 233.13 234.322 L 230.399 237.136 L 227.44 239.941 L 224.71 242.563 L 221.742 245.377 L 219.012 247.982 L 216.071 250.804 L 213.323 253.409 L 210.373 256.015 L 207.414 258.636 L 204.473 261.241 L 201.532 263.872 L 198.564 266.268 L 195.623 268.89 L 192.655 271.286 L 189.714 273.916 L 186.773 276.312 L 183.805 278.734 L 180.653 281.13 L 177.703 283.552 L 174.745 285.965 L 171.584 288.369 L 168.432 290.582 L 165.465 293.003 L 162.313 295.191 L 159.152 297.612 L 155.974 299.825 L 153.033 302.038 L 153.673 300.627 Z  M 150.091 300.627 L 150.091 299.825 L 150.925 299.215 L 150.091 300.627 Z  M 152.822 319.505 L 150.284 318.111 L 150.091 300.627 L 153.673 300.627 L 153.884 318.111 L 152.822 319.505 Z  M 152.822 319.505 L 150.284 320.716 L 150.284 318.111 L 152.822 319.505 Z " fill="rgb(31,26,23)"/><path d=" M 137.852 312.082 L 138.491 309.076 L 139.536 309.46 L 140.602 310.262 L 141.434 311.08 L 142.074 312.082 L 142.714 313.477 L 143.118 314.687 L 143.332 316.29 L 143.332 317.91 L 143.332 319.505 L 143.332 320.716 L 142.926 322.135 L 142.714 323.321 L 142.074 324.323 L 141.647 325.333 L 140.816 326.151 L 139.962 326.953 L 139.131 327.546 L 138.065 328.155 L 136.807 328.548 L 135.549 328.548 L 134.482 328.548 L 133.437 328.548 L 132.371 328.155 L 131.539 327.546 L 130.686 326.953 L 129.854 325.943 L 129.428 325.149 L 128.788 323.939 L 128.362 322.728 L 128.17 321.517 L 127.957 320.307 L 127.957 318.712 L 127.957 317.292 L 128.17 315.898 L 128.575 314.487 L 129.002 313.276 L 129.642 312.082 L 130.473 311.264 L 131.326 310.471 L 132.371 309.87 L 132.797 312.683 L 131.945 313.093 L 131.326 313.685 L 130.9 314.278 L 130.473 315.096 L 130.067 315.898 L 129.854 316.7 L 129.642 317.702 L 129.642 318.712 L 129.854 320.716 L 130.26 322.519 L 130.686 323.321 L 131.112 323.939 L 131.752 324.532 L 132.158 324.941 L 133.01 325.333 L 133.842 325.534 L 134.695 325.742 L 135.549 325.742 L 137.019 325.333 L 138.278 324.941 L 139.323 324.323 L 140.176 323.321 L 140.816 322.319 L 141.434 321.125 L 141.647 319.714 L 141.647 318.111 L 141.647 316.9 L 141.434 315.898 L 141.22 314.896 L 140.816 314.095 L 140.176 313.276 L 139.536 312.683 L 138.917 312.274 L 137.852 312.082 Z " fill="rgb(31,26,23)"/><path d=" M 143.118 304.442 L 128.17 305.653 L 128.17 302.639 L 143.118 301.629 L 143.118 304.442 Z " fill="rgb(31,26,23)"/><path d=" M 143.118 296.61 L 128.17 297.612 L 128.17 287.977 L 128.17 285.146 L 128.362 283.343 L 129.002 281.948 L 129.854 280.947 L 130.26 280.329 L 130.9 280.128 L 131.539 279.945 L 132.158 279.736 L 133.01 279.736 L 133.65 280.128 L 134.269 280.537 L 134.909 281.13 L 135.335 281.948 L 135.74 282.95 L 135.953 284.345 L 136.167 285.764 L 136.593 284.554 L 137.019 283.752 L 137.852 282.541 L 138.917 281.331 L 142.926 277.114 L 143.118 280.947 L 139.962 283.961 L 138.491 285.556 L 137.446 286.766 L 137.019 287.568 L 136.593 288.57 L 136.38 289.371 L 136.38 290.782 L 136.38 294.189 L 143.118 293.596 L 143.118 296.61 Z  M 134.695 294.189 L 134.695 287.977 L 134.695 286.148 L 134.482 284.963 L 134.055 283.961 L 133.437 283.343 L 132.797 282.95 L 132.158 282.75 L 131.539 282.95 L 131.112 283.142 L 130.686 283.552 L 130.26 284.144 L 129.854 285.556 L 129.642 287.568 L 129.854 294.598 L 134.695 294.189 Z " fill="rgb(31,26,23)"/><path d=" M 137.638 259.237 L 138.065 256.223 L 139.323 256.833 L 140.389 257.434 L 141.22 258.227 L 141.86 259.438 L 142.5 260.649 L 142.926 262.043 L 143.118 263.454 L 143.118 265.258 L 143.118 266.677 L 142.926 268.071 L 142.714 269.282 L 142.5 270.493 L 141.86 271.495 L 141.22 272.497 L 140.602 273.298 L 139.749 274.1 L 138.704 274.918 L 137.638 275.311 L 136.593 275.72 L 135.335 275.92 L 134.269 275.92 L 133.224 275.72 L 132.158 275.311 L 131.326 274.709 L 130.473 274.1 L 129.642 273.298 L 129.215 272.296 L 128.575 271.286 L 128.17 270.084 L 127.957 268.689 L 127.743 267.479 L 127.743 266.059 L 127.743 264.464 L 127.957 263.045 L 128.362 261.651 L 128.788 260.44 L 129.428 259.438 L 130.26 258.436 L 131.112 257.634 L 131.945 257.016 L 132.584 259.847 L 131.752 260.239 L 131.112 260.857 L 130.686 261.45 L 130.26 262.252 L 129.854 263.045 L 129.642 263.872 L 129.428 264.873 L 129.428 265.875 L 129.642 268.071 L 130.067 269.691 L 130.473 270.493 L 130.9 271.086 L 131.326 271.695 L 131.945 272.088 L 132.797 272.497 L 133.65 272.705 L 134.482 272.906 L 135.335 272.906 L 136.807 272.705 L 138.065 272.088 L 139.131 271.495 L 139.962 270.693 L 140.602 269.482 L 141.22 268.272 L 141.434 266.877 L 141.434 265.258 L 141.434 264.256 L 141.22 263.254 L 141.029 262.252 L 140.602 261.241 L 139.962 260.649 L 139.323 260.031 L 138.491 259.438 L 137.638 259.237 Z " fill="rgb(31,26,23)"/><path d=" M 127.957 238.94 L 127.957 236.126 L 136.593 235.533 L 137.446 235.533 L 138.491 235.533 L 139.323 235.742 L 139.962 235.925 L 140.816 236.334 L 141.22 236.927 L 141.86 237.746 L 142.287 238.547 L 142.714 239.557 L 142.926 240.76 L 143.118 242.154 L 143.118 243.574 L 143.118 245.577 L 142.714 247.381 L 142.287 248.984 L 141.647 250.195 L 140.816 251.197 L 139.749 251.998 L 138.278 252.407 L 136.593 252.817 L 127.957 253.409 L 127.957 250.395 L 136.593 249.802 L 138.278 249.602 L 139.536 248.984 L 140.389 248.183 L 140.816 247.181 L 141.22 245.577 L 141.22 243.958 L 141.22 242.563 L 141.029 241.361 L 140.816 240.351 L 140.389 239.557 L 139.749 238.94 L 138.917 238.547 L 137.852 238.347 L 136.593 238.347 L 127.957 238.94 Z " fill="rgb(31,26,23)"/><path d=" M 142.714 230.306 L 127.743 231.308 L 127.743 228.502 L 141.029 227.501 L 141.029 216.838 L 142.714 216.654 L 142.714 230.306 Z " fill="rgb(31,26,23)"/><path d=" M 135.335 214.442 L 134.482 214.442 L 133.65 214.442 L 132.797 214.233 L 131.945 213.824 L 131.326 213.64 L 130.686 213.022 L 130.067 212.429 L 129.642 211.812 L 128.575 210.217 L 127.957 208.614 L 127.53 206.61 L 127.53 204.397 L 127.53 202.978 L 127.743 201.583 L 127.957 200.373 L 128.362 199.162 L 128.788 197.96 L 129.428 196.949 L 130.26 195.947 L 130.9 195.146 L 131.945 194.553 L 133.01 193.935 L 134.055 193.551 L 135.122 193.551 L 136.807 193.551 L 138.278 193.935 L 139.536 194.737 L 140.602 195.739 L 141.647 197.358 L 142.287 199.162 L 142.714 201.174 L 142.926 203.387 L 142.714 205.792 L 142.287 207.795 L 141.647 209.808 L 140.602 211.428 L 139.536 212.638 L 138.278 213.64 L 136.807 214.233 L 135.335 214.442 Z  M 135.549 211.428 L 136.807 211.219 L 137.852 210.626 L 138.917 210.008 L 139.749 209.006 L 140.389 207.795 L 140.816 206.401 L 141.22 204.99 L 141.22 203.596 L 141.22 201.976 L 140.816 200.581 L 140.389 199.371 L 139.749 198.369 L 138.917 197.358 L 137.852 196.749 L 136.593 196.565 L 135.122 196.356 L 134.269 196.565 L 133.224 196.749 L 132.371 197.158 L 131.752 197.751 L 131.112 198.369 L 130.686 198.962 L 130.26 199.763 L 129.854 200.581 L 129.215 202.385 L 129.215 204.397 L 129.215 205.792 L 129.642 207.203 L 130.067 208.614 L 130.686 209.624 L 131.539 210.417 L 132.584 211.018 L 133.842 211.428 L 135.549 211.428 Z " fill="rgb(31,26,23)"/><path d=" M 138.182 312.408 L 138.822 309.394 L 139.866 309.778 L 140.932 310.579 L 141.765 311.398 L 142.404 312.408 L 143.044 313.802 L 143.449 315.005 L 143.662 316.608 L 143.662 318.228 L 143.662 319.822 L 143.662 321.033 L 143.257 322.453 L 143.044 323.638 L 142.404 324.64 L 141.978 325.65 L 141.146 326.469 L 140.293 327.27 L 139.462 327.863 L 138.395 328.481 L 137.137 328.865 L 135.879 328.865 L 134.813 328.865 L 133.767 328.865 L 132.701 328.481 L 131.87 327.863 L 131.017 327.27 L 130.185 326.26 L 129.758 325.467 L 129.118 324.256 L 128.693 323.045 L 128.5 321.835 L 128.287 320.624 L 128.287 319.029 L 128.287 317.61 L 128.5 316.215 L 128.906 314.804 L 129.332 313.594 L 129.972 312.408 L 130.803 311.581 L 131.657 310.788 L 132.701 310.187 L 133.128 313.001 L 132.275 313.41 L 131.657 314.003 L 131.23 314.596 L 130.803 315.414 L 130.398 316.215 L 130.185 317.017 L 129.972 318.019 L 129.972 319.029 L 130.185 321.033 L 130.59 322.837 L 131.017 323.638 L 131.443 324.256 L 132.083 324.849 L 132.488 325.258 L 133.341 325.65 L 134.173 325.851 L 135.025 326.06 L 135.879 326.06 L 137.35 325.65 L 138.608 325.258 L 139.653 324.64 L 140.507 323.638 L 141.146 322.636 L 141.765 321.442 L 141.978 320.031 L 141.978 318.428 L 141.978 317.226 L 141.765 316.215 L 141.551 315.213 L 141.146 314.412 L 140.507 313.594 L 139.866 313.001 L 139.248 312.592 L 138.182 312.408 Z " fill="none" vector-effect="non-scaling-stroke" stroke-width="0.778" stroke="rgb(31,26,23)" stroke-linejoin="miter" stroke-linecap="square" stroke-miterlimit="3"/><path d=" M 143.449 304.76 L 128.5 305.97 L 128.5 302.956 L 143.449 301.946 L 143.449 304.76 Z " fill="none" vector-effect="non-scaling-stroke" stroke-width="0.778" stroke="rgb(31,26,23)" stroke-linejoin="miter" stroke-linecap="square" stroke-miterlimit="3"/><path d=" M 143.449 296.928 L 128.5 297.93 L 128.5 288.294 L 128.5 285.464 L 128.693 283.66 L 129.332 282.266 L 130.185 281.264 L 130.59 280.646 L 131.23 280.446 L 131.87 280.262 L 132.488 280.053 L 133.341 280.053 L 133.981 280.446 L 134.6 280.855 L 135.239 281.447 L 135.665 282.266 L 136.071 283.276 L 136.284 284.662 L 136.497 286.082 L 136.924 284.871 L 137.35 284.069 L 138.182 282.859 L 139.248 281.656 L 143.257 277.431 L 143.449 281.264 L 140.293 284.278 L 138.822 285.873 L 137.777 287.083 L 137.35 287.885 L 136.924 288.887 L 136.71 289.689 L 136.71 291.1 L 136.71 294.506 L 143.449 293.913 L 143.449 296.928 Z " fill="none" vector-effect="non-scaling-stroke" stroke-width="0.778" stroke="rgb(31,26,23)" stroke-linejoin="miter" stroke-linecap="square" stroke-miterlimit="3"/><path d=" M 135.025 294.506 L 135.025 288.294 L 135.025 286.474 L 134.813 285.28 L 134.386 284.278 L 133.767 283.66 L 133.128 283.276 L 132.488 283.067 L 131.87 283.276 L 131.443 283.46 L 131.017 283.869 L 130.59 284.462 L 130.185 285.873 L 129.972 287.885 L 130.185 294.915 L 135.025 294.506 Z " fill="none" vector-effect="non-scaling-stroke" stroke-width="0.778" stroke="rgb(31,26,23)" stroke-linejoin="miter" stroke-linecap="square" stroke-miterlimit="3"/><path d=" M 137.968 259.555 L 138.395 256.541 L 139.653 257.15 L 140.72 257.751 L 141.551 258.544 L 142.191 259.755 L 142.831 260.966 L 143.257 262.36 L 143.449 263.771 L 143.449 265.583 L 143.449 266.994 L 143.257 268.389 L 143.044 269.599 L 142.831 270.81 L 142.191 271.812 L 141.551 272.814 L 140.932 273.616 L 140.08 274.417 L 139.035 275.235 L 137.968 275.628 L 136.924 276.037 L 135.665 276.237 L 134.6 276.237 L 133.555 276.037 L 132.488 275.628 L 131.657 275.027 L 130.803 274.417 L 129.972 273.616 L 129.545 272.614 L 128.906 271.603 L 128.5 270.401 L 128.287 269.007 L 128.074 267.796 L 128.074 266.376 L 128.074 264.782 L 128.287 263.362 L 128.693 261.968 L 129.118 260.765 L 129.758 259.755 L 130.59 258.753 L 131.443 257.952 L 132.275 257.342 L 132.915 260.164 L 132.083 260.557 L 131.443 261.175 L 131.017 261.767 L 130.59 262.569 L 130.185 263.362 L 129.972 264.189 L 129.758 265.191 L 129.758 266.193 L 129.972 268.389 L 130.398 270.008 L 130.803 270.81 L 131.23 271.403 L 131.657 272.021 L 132.275 272.405 L 133.128 272.814 L 133.981 273.023 L 134.813 273.223 L 135.665 273.223 L 137.137 273.023 L 138.395 272.405 L 139.462 271.812 L 140.293 271.01 L 140.932 269.8 L 141.551 268.589 L 141.765 267.203 L 141.765 265.583 L 141.765 264.573 L 141.551 263.571 L 141.359 262.569 L 140.932 261.559 L 140.293 260.966 L 139.653 260.348 L 138.822 259.755 L 137.968 259.555 Z " fill="none" vector-effect="non-scaling-stroke" stroke-width="0.778" stroke="rgb(31,26,23)" stroke-linejoin="miter" stroke-linecap="square" stroke-miterlimit="3"/><path d=" M 128.287 239.257 L 128.287 236.451 L 136.924 235.85 L 137.777 235.85 L 138.822 235.85 L 139.653 236.059 L 140.293 236.243 L 141.146 236.652 L 141.551 237.245 L 142.191 238.063 L 142.617 238.864 L 143.044 239.875 L 143.257 241.077 L 143.449 242.471 L 143.449 243.891 L 143.449 245.895 L 143.044 247.698 L 142.617 249.301 L 141.978 250.512 L 141.146 251.514 L 140.08 252.316 L 138.608 252.725 L 136.924 253.134 L 128.287 253.727 L 128.287 250.713 L 136.924 250.12 L 138.608 249.919 L 139.866 249.301 L 140.72 248.5 L 141.146 247.498 L 141.551 245.895 L 141.551 244.275 L 141.551 242.881 L 141.359 241.678 L 141.146 240.668 L 140.72 239.875 L 140.08 239.257 L 139.248 238.864 L 138.182 238.664 L 136.924 238.664 L 128.287 239.257 Z " fill="none" vector-effect="non-scaling-stroke" stroke-width="0.778" stroke="rgb(31,26,23)" stroke-linejoin="miter" stroke-linecap="square" stroke-miterlimit="3"/><path d=" M 143.044 230.623 L 128.074 231.634 L 128.074 228.82 L 141.359 227.818 L 141.359 217.155 L 143.044 216.972 L 143.044 230.623 Z " fill="none" vector-effect="non-scaling-stroke" stroke-width="0.778" stroke="rgb(31,26,23)" stroke-linejoin="miter" stroke-linecap="square" stroke-miterlimit="3"/><path d=" M 135.665 214.759 L 134.813 214.759 L 133.981 214.759 L 133.128 214.55 L 132.275 214.141 L 131.657 213.957 L 131.017 213.34 L 130.398 212.747 L 129.972 212.129 L 128.906 210.534 L 128.287 208.931 L 127.86 206.927 L 127.86 204.714 L 127.86 203.295 L 128.074 201.901 L 128.287 200.69 L 128.693 199.488 L 129.118 198.277 L 129.758 197.267 L 130.59 196.265 L 131.23 195.463 L 132.275 194.87 L 133.341 194.252 L 134.386 193.868 L 135.452 193.868 L 137.137 193.868 L 138.608 194.252 L 139.866 195.054 L 140.932 196.064 L 141.978 197.676 L 142.617 199.488 L 143.044 201.491 L 143.257 203.704 L 143.044 206.109 L 142.617 208.113 L 141.978 210.125 L 140.932 211.745 L 139.866 212.955 L 138.608 213.957 L 137.137 214.55 L 135.665 214.759 Z " fill="none" vector-effect="non-scaling-stroke" stroke-width="0.778" stroke="rgb(31,26,23)" stroke-linejoin="miter" stroke-linecap="square" stroke-miterlimit="3"/><path d=" M 135.879 211.745 L 137.137 211.536 L 138.182 210.943 L 139.248 210.325 L 140.08 209.323 L 140.72 208.113 L 141.146 206.718 L 141.551 205.307 L 141.551 203.913 L 141.551 202.293 L 141.146 200.899 L 140.72 199.688 L 140.08 198.686 L 139.248 197.676 L 138.182 197.066 L 136.924 196.882 L 135.452 196.674 L 134.6 196.882 L 133.555 197.066 L 132.701 197.475 L 132.083 198.068 L 131.443 198.686 L 131.017 199.279 L 130.59 200.08 L 130.185 200.899 L 129.545 202.702 L 129.545 204.714 L 129.545 206.109 L 129.972 207.52 L 130.398 208.931 L 131.017 209.941 L 131.87 210.743 L 132.915 211.336 L 134.173 211.745 L 135.879 211.745 Z " fill="none" vector-effect="non-scaling-stroke" stroke-width="0.778" stroke="rgb(31,26,23)" stroke-linejoin="miter" stroke-linecap="square" stroke-miterlimit="3"/><path d=" M 229.117 167.617 L 221.953 152.955 L 226.396 151.152 L 227.862 150.534 L 228.933 150.35 L 230.189 150.35 L 231.444 150.742 L 232.708 151.544 L 233.981 152.546 L 235.026 153.957 L 236.097 155.769 L 236.501 156.971 L 236.923 157.982 L 237.142 159.192 L 237.353 160.194 L 237.142 161.196 L 237.142 162.206 L 236.923 163 L 236.501 163.592 L 236.097 164.21 L 235.456 164.803 L 234.605 165.212 L 233.771 165.605 L 229.117 167.617 Z  M 229.978 165.212 L 232.708 164.01 L 233.981 163.208 L 234.815 162.407 L 235.246 161.405 L 235.456 160.194 L 235.026 158.391 L 234.201 156.378 L 233.771 155.376 L 233.13 154.558 L 232.515 153.757 L 231.874 153.164 L 231.233 152.755 L 230.619 152.362 L 229.978 152.153 L 229.548 152.153 L 228.503 152.362 L 227.221 152.755 L 224.49 153.957 L 229.978 165.212 Z " fill="rgb(31,26,23)"/><path d=" M 229.451 167.934 L 222.287 153.272 L 226.721 151.469 L 228.196 150.851 L 229.258 150.667 L 230.522 150.667 L 231.778 151.06 L 233.033 151.861 L 234.315 152.863 L 235.36 154.283 L 236.422 156.086 L 236.835 157.289 L 237.256 158.299 L 237.467 159.51 L 237.686 160.511 L 237.467 161.513 L 237.467 162.524 L 237.256 163.317 L 236.835 163.918 L 236.422 164.528 L 235.79 165.12 L 234.93 165.538 L 234.104 165.922 L 229.451 167.934 Z " fill="none" vector-effect="non-scaling-stroke" stroke-width="0.778" stroke="rgb(31,26,23)" stroke-linejoin="miter" stroke-linecap="square" stroke-miterlimit="3"/><path d=" M 230.303 165.538 L 233.033 164.327 L 234.315 163.526 L 235.149 162.724 L 235.57 161.722 L 235.79 160.511 L 235.36 158.708 L 234.526 156.696 L 234.104 155.694 L 233.463 154.875 L 232.84 154.074 L 232.199 153.481 L 231.567 153.072 L 230.944 152.68 L 230.303 152.471 L 229.881 152.471 L 228.836 152.68 L 227.555 153.072 L 224.824 154.283 L 230.303 165.538 Z " fill="none" vector-effect="non-scaling-stroke" stroke-width="0.778" stroke="rgb(31,26,23)" stroke-linejoin="miter" stroke-linecap="square" stroke-miterlimit="3"/><path d=" M 254.438 162.206 L 260.531 147.336 L 269.811 150.742 L 269.188 152.546 L 261.383 149.74 L 259.697 154.375 L 266.651 156.971 L 266.01 158.574 L 258.845 155.969 L 256.738 161.196 L 264.754 164.01 L 263.903 165.813 L 254.438 162.206 Z " fill="rgb(31,26,23)"/><path d=" M 254.763 162.524 L 260.865 147.653 L 270.136 151.06 L 269.522 152.863 L 261.716 150.058 L 260.031 154.692 L 266.984 157.289 L 266.343 158.892 L 259.179 156.287 L 257.072 161.513 L 265.088 164.327 L 264.236 166.131 L 254.763 162.524 Z " fill="none" vector-effect="non-scaling-stroke" stroke-width="0.778" stroke="rgb(31,26,23)" stroke-linejoin="miter" stroke-linecap="square" stroke-miterlimit="3"/><path d=" M 354.983 184.3 L 372.683 184.3 L 372.683 181.675 L 354.983 181.675 L 354.983 184.3 Z " fill="rgb(31,26,23)"/><path d=" M 354.983 196.565 L 372.894 196.356 L 372.894 203.98 L 372.683 205.992 L 372.253 207.612 L 372.042 208.205 L 371.638 208.797 L 371.208 209.215 L 370.567 209.624 L 369.522 210.217 L 368.24 210.417 L 367.196 210.417 L 366.151 209.808 L 365.299 209.006 L 364.474 207.795 L 364.255 208.614 L 363.833 209.415 L 363.403 210.008 L 362.981 210.417 L 362.358 211.018 L 361.717 211.219 L 360.892 211.428 L 360.251 211.428 L 358.987 211.428 L 357.924 210.81 L 356.88 210.217 L 356.239 209.415 L 355.598 208.413 L 355.405 207.203 L 355.194 205.792 L 354.983 204.188 L 354.983 196.565 Z  M 365.299 199.162 L 365.299 203.387 L 365.519 204.99 L 365.519 205.992 L 365.94 206.793 L 366.564 207.411 L 367.196 207.795 L 368.056 208.004 L 368.881 207.795 L 369.522 207.411 L 370.146 206.793 L 370.567 205.992 L 370.787 204.781 L 370.787 202.978 L 370.787 199.162 L 365.299 199.162 Z  M 357.09 199.162 L 357.09 203.98 L 357.09 205.19 L 357.283 205.792 L 357.494 206.793 L 357.714 207.411 L 358.135 208.004 L 358.776 208.413 L 359.399 208.614 L 360.251 208.797 L 361.076 208.614 L 361.937 208.205 L 362.569 207.612 L 362.981 206.61 L 363.192 205.399 L 363.192 203.779 L 363.192 199.162 L 357.09 199.162 Z " fill="rgb(31,26,23)"/><path d=" M 355.194 219.051 L 372.894 226.699 L 372.894 229.504 L 355.194 237.746 L 355.194 234.731 L 360.462 232.318 L 360.462 224.077 L 355.194 221.865 L 355.194 219.051 Z  M 362.358 224.87 L 362.569 231.517 L 367.415 229.504 L 369.522 228.711 L 371.208 228.093 L 369.312 227.501 L 367.626 226.883 L 362.358 224.87 Z " fill="rgb(31,26,23)"/><path d=" M 362.358 255.213 L 364.474 255.213 L 364.474 263.663 L 357.714 263.663 L 356.669 261.651 L 355.598 259.647 L 355.194 257.634 L 354.983 255.422 L 354.983 254.011 L 355.194 252.616 L 355.598 251.406 L 356.028 250.195 L 356.669 248.984 L 357.494 247.982 L 358.346 247.181 L 359.399 246.588 L 360.462 245.97 L 361.506 245.577 L 362.762 245.377 L 364.044 245.168 L 365.299 245.377 L 366.564 245.577 L 367.837 245.97 L 368.881 246.379 L 369.953 247.181 L 370.997 247.982 L 371.638 248.8 L 372.253 249.986 L 372.683 251.197 L 373.104 252.407 L 373.324 253.819 L 373.324 255.213 L 373.324 257.225 L 372.894 259.029 L 372.042 260.649 L 370.997 261.859 L 369.742 262.661 L 368.24 263.254 L 367.626 261.041 L 368.881 260.44 L 369.742 259.847 L 370.356 259.029 L 370.997 257.843 L 371.208 256.632 L 371.419 255.213 L 371.208 253.409 L 370.997 251.998 L 370.356 250.804 L 369.522 249.986 L 368.671 249.193 L 367.837 248.8 L 366.151 248.183 L 364.255 247.982 L 362.981 247.982 L 361.937 248.183 L 361.076 248.592 L 360.251 248.984 L 359.399 249.393 L 358.776 249.986 L 358.346 250.804 L 357.924 251.606 L 357.283 253.409 L 357.09 255.213 L 357.283 257.016 L 357.714 258.636 L 358.346 260.031 L 358.987 261.041 L 362.358 261.041 L 362.358 255.213 Z " fill="rgb(31,26,23)"/><path d=" M 373.324 288.161 L 373.324 290.782 L 362.981 290.782 L 361.717 290.782 L 360.672 290.782 L 359.61 290.582 L 358.776 290.173 L 357.924 289.78 L 357.283 289.163 L 356.669 288.57 L 356.028 287.768 L 355.598 286.766 L 355.405 285.764 L 355.194 284.554 L 355.194 283.142 L 355.194 281.748 L 355.405 280.537 L 355.598 279.527 L 356.028 278.525 L 356.449 277.724 L 357.09 277.114 L 357.714 276.513 L 358.346 276.104 L 359.399 275.72 L 360.462 275.511 L 361.506 275.311 L 362.981 275.311 L 373.324 275.311 L 373.324 277.932 L 362.981 277.932 L 360.892 277.932 L 359.61 278.325 L 358.987 278.734 L 358.565 279.118 L 358.135 279.527 L 357.924 280.128 L 357.283 281.331 L 357.283 282.95 L 357.283 284.144 L 357.494 285.355 L 357.924 286.357 L 358.346 286.975 L 359.18 287.568 L 360.251 287.977 L 361.506 288.161 L 362.981 288.161 L 373.324 288.161 Z " fill="rgb(31,26,23)"/><path d=" M 355.598 303.048 L 373.324 303.048 L 373.535 317.292 L 371.419 317.292 L 371.208 305.653 L 365.73 305.653 L 365.94 316.491 L 363.833 316.7 L 363.614 305.653 L 357.714 305.653 L 357.714 317.91 L 355.598 317.91 L 355.598 303.048 Z " fill="rgb(31,26,23)"/><path d=" M 355.308 184.617 L 373.008 184.617 L 373.008 181.993 L 355.308 181.993 L 355.308 184.617 Z " fill="none" vector-effect="non-scaling-stroke" stroke-width="0.778" stroke="rgb(31,26,23)" stroke-linejoin="miter" stroke-linecap="square" stroke-miterlimit="3"/><path d=" M 355.308 196.882 L 373.227 196.674 L 373.227 204.305 L 373.008 206.309 L 372.586 207.929 L 372.367 208.522 L 371.963 209.123 L 371.542 209.532 L 370.901 209.941 L 369.856 210.534 L 368.574 210.743 L 367.529 210.743 L 366.485 210.125 L 365.633 209.323 L 364.799 208.113 L 364.588 208.931 L 364.158 209.733 L 363.737 210.325 L 363.306 210.743 L 362.692 211.336 L 362.051 211.536 L 361.217 211.745 L 360.576 211.745 L 359.32 211.745 L 358.258 211.127 L 357.213 210.534 L 356.572 209.733 L 355.931 208.731 L 355.738 207.52 L 355.528 206.109 L 355.308 204.506 L 355.308 196.882 Z " fill="none" vector-effect="non-scaling-stroke" stroke-width="0.778" stroke="rgb(31,26,23)" stroke-linejoin="miter" stroke-linecap="square" stroke-miterlimit="3"/><path d=" M 365.633 199.488 L 365.633 203.704 L 365.844 205.307 L 365.844 206.309 L 366.274 207.111 L 366.888 207.729 L 367.529 208.113 L 368.381 208.321 L 369.215 208.113 L 369.856 207.729 L 370.471 207.111 L 370.901 206.309 L 371.111 205.098 L 371.111 203.295 L 371.111 199.488 L 365.633 199.488 Z " fill="none" vector-effect="non-scaling-stroke" stroke-width="0.778" stroke="rgb(31,26,23)" stroke-linejoin="miter" stroke-linecap="square" stroke-miterlimit="3"/><path d=" M 357.424 199.488 L 357.424 204.305 L 357.424 205.508 L 357.617 206.109 L 357.828 207.111 L 358.038 207.729 L 358.469 208.321 L 359.11 208.731 L 359.724 208.931 L 360.576 209.123 L 361.41 208.931 L 362.262 208.522 L 362.902 207.929 L 363.306 206.927 L 363.517 205.716 L 363.517 204.097 L 363.517 199.488 L 357.424 199.488 Z " fill="none" vector-effect="non-scaling-stroke" stroke-width="0.778" stroke="rgb(31,26,23)" stroke-linejoin="miter" stroke-linecap="square" stroke-miterlimit="3"/><path d=" M 355.528 219.368 L 373.227 227.016 L 373.227 229.822 L 355.528 238.063 L 355.528 235.057 L 360.795 232.636 L 360.795 224.394 L 355.528 222.182 L 355.528 219.368 Z " fill="none" vector-effect="non-scaling-stroke" stroke-width="0.778" stroke="rgb(31,26,23)" stroke-linejoin="miter" stroke-linecap="square" stroke-miterlimit="3"/><path d=" M 362.692 225.196 L 362.902 231.834 L 367.74 229.822 L 369.856 229.029 L 371.542 228.411 L 369.645 227.818 L 367.96 227.2 L 362.692 225.196 Z " fill="none" vector-effect="non-scaling-stroke" stroke-width="0.778" stroke="rgb(31,26,23)" stroke-linejoin="miter" stroke-linecap="square" stroke-miterlimit="3"/><path d=" M 362.692 255.53 L 364.799 255.53 L 364.799 263.98 L 358.038 263.98 L 356.994 261.968 L 355.931 259.964 L 355.528 257.952 L 355.308 255.739 L 355.308 254.328 L 355.528 252.934 L 355.931 251.723 L 356.353 250.512 L 356.994 249.301 L 357.828 248.299 L 358.679 247.498 L 359.724 246.905 L 360.795 246.287 L 361.84 245.895 L 363.096 245.694 L 364.377 245.486 L 365.633 245.694 L 366.888 245.895 L 368.17 246.287 L 369.215 246.696 L 370.277 247.498 L 371.322 248.299 L 371.963 249.118 L 372.586 250.303 L 373.008 251.514 L 373.438 252.725 L 373.649 254.136 L 373.649 255.53 L 373.649 257.542 L 373.227 259.346 L 372.367 260.966 L 371.322 262.177 L 370.067 262.978 L 368.574 263.571 L 367.96 261.358 L 369.215 260.765 L 370.067 260.164 L 370.69 259.346 L 371.322 258.16 L 371.542 256.95 L 371.752 255.53 L 371.542 253.727 L 371.322 252.316 L 370.69 251.13 L 369.856 250.303 L 369.004 249.51 L 368.17 249.118 L 366.485 248.5 L 364.588 248.299 L 363.306 248.299 L 362.262 248.5 L 361.41 248.909 L 360.576 249.301 L 359.724 249.711 L 359.11 250.303 L 358.679 251.13 L 358.258 251.923 L 357.617 253.727 L 357.424 255.53 L 357.617 257.342 L 358.038 258.954 L 358.679 260.348 L 359.32 261.358 L 362.692 261.358 L 362.692 255.53 Z " fill="none" vector-effect="non-scaling-stroke" stroke-width="0.778" stroke="rgb(31,26,23)" stroke-linejoin="miter" stroke-linecap="square" stroke-miterlimit="3"/><path d=" M 373.649 288.478 L 373.649 291.1 L 363.306 291.1 L 362.051 291.1 L 361.006 291.1 L 359.935 290.899 L 359.11 290.49 L 358.258 290.098 L 357.617 289.48 L 356.994 288.887 L 356.353 288.094 L 355.931 287.083 L 355.738 286.082 L 355.528 284.871 L 355.528 283.46 L 355.528 282.065 L 355.738 280.855 L 355.931 279.844 L 356.353 278.842 L 356.783 278.041 L 357.424 277.431 L 358.038 276.838 L 358.679 276.421 L 359.724 276.037 L 360.795 275.828 L 361.84 275.628 L 363.306 275.628 L 373.649 275.628 L 373.649 278.25 L 363.306 278.25 L 361.217 278.25 L 359.935 278.642 L 359.32 279.051 L 358.89 279.435 L 358.469 279.844 L 358.258 280.446 L 357.617 281.656 L 357.617 283.276 L 357.617 284.462 L 357.828 285.672 L 358.258 286.674 L 358.679 287.292 L 359.513 287.885 L 360.576 288.294 L 361.84 288.478 L 363.306 288.478 L 373.649 288.478 Z " fill="none" vector-effect="non-scaling-stroke" stroke-width="0.778" stroke="rgb(31,26,23)" stroke-linejoin="miter" stroke-linecap="square" stroke-miterlimit="3"/><path d=" M 355.931 303.365 L 373.649 303.365 L 373.868 317.61 L 371.752 317.61 L 371.542 305.97 L 366.063 305.97 L 366.274 316.808 L 364.158 317.017 L 363.947 305.97 L 358.038 305.97 L 358.038 318.228 L 355.931 318.228 L 355.931 303.365 Z " fill="none" vector-effect="non-scaling-stroke" stroke-width="0.778" stroke="rgb(31,26,23)" stroke-linejoin="miter" stroke-linecap="square" stroke-miterlimit="3"/><path d=" M 223.024 379.781 L 220.698 378.777 L 227.44 364.508 L 225.965 364.712 L 224.49 365.123 L 222.814 365.123 L 221.339 365.123 L 222.383 362.909 L 224.71 362.704 L 227.028 362.314 L 228.714 361.495 L 230.189 360.695 L 231.663 361.495 L 223.024 379.781 Z " fill="rgb(31,26,23)"/><path d=" M 231.444 378.388 L 233.771 379.187 L 233.56 379.986 L 233.56 380.581 L 233.771 381.195 L 233.771 381.79 L 234.201 382.2 L 234.605 382.795 L 235.026 383 L 235.667 383.41 L 236.712 383.8 L 237.783 383.8 L 238.828 383.41 L 239.679 383 L 240.724 382.405 L 241.576 381.195 L 242.621 379.986 L 243.261 378.572 L 243.261 378.572 L 243.472 378.182 L 242.19 378.777 L 240.724 379.187 L 239.249 378.982 L 237.783 378.572 L 236.712 377.977 L 235.667 377.382 L 235.026 376.378 L 234.412 375.169 L 234.201 373.959 L 234.201 372.749 L 234.412 371.54 L 234.815 370.146 L 235.667 368.936 L 236.501 367.931 L 237.563 366.927 L 238.608 366.517 L 239.89 366.128 L 241.365 365.922 L 242.621 366.128 L 243.876 366.517 L 244.728 367.132 L 245.562 367.521 L 246.203 368.341 L 246.844 368.936 L 247.265 369.941 L 247.678 370.74 L 247.888 371.745 L 247.888 372.749 L 247.678 373.959 L 247.458 375.169 L 247.054 376.768 L 246.203 378.388 L 245.369 379.986 L 244.517 381.401 L 243.683 382.59 L 242.831 383.594 L 241.98 384.414 L 240.935 385.009 L 239.89 385.419 L 238.828 385.809 L 237.783 385.809 L 236.712 385.809 L 235.667 385.603 L 234.605 385.214 L 233.56 384.599 L 232.708 384.004 L 232.085 383.205 L 231.663 382.405 L 231.233 381.585 L 231.023 380.581 L 231.233 379.392 L 231.444 378.388 Z  M 244.947 374.369 L 245.369 373.364 L 245.562 372.544 L 245.562 371.745 L 245.369 370.74 L 244.947 370.146 L 244.517 369.53 L 243.876 368.936 L 243.261 368.526 L 242.41 368.341 L 241.576 368.341 L 240.724 368.341 L 239.89 368.526 L 239.038 369.141 L 238.398 369.736 L 237.783 370.351 L 237.353 371.355 L 236.923 372.155 L 236.712 372.954 L 236.712 373.753 L 236.923 374.553 L 237.353 375.373 L 237.783 375.968 L 238.398 376.562 L 239.249 376.972 L 240.083 377.178 L 240.935 377.382 L 241.576 377.178 L 242.41 376.972 L 243.261 376.562 L 243.876 375.968 L 244.517 375.373 L 244.947 374.369 Z " fill="rgb(31,26,23)"/><path d=" M 223.349 380.099 L 221.031 379.095 L 227.765 364.825 L 226.299 365.031 L 224.824 365.441 L 223.138 365.441 L 221.672 365.441 L 222.717 363.226 L 225.035 363.022 L 227.361 362.632 L 229.047 361.812 L 230.522 361.013 L 231.988 361.812 L 223.349 380.099 Z " fill="none" vector-effect="non-scaling-stroke" stroke-width="0.778" stroke="rgb(31,26,23)" stroke-linejoin="miter" stroke-linecap="square" stroke-miterlimit="3"/><path d=" M 231.778 378.705 L 234.104 379.505 L 233.885 380.304 L 233.885 380.898 L 234.104 381.514 L 234.104 382.108 L 234.526 382.518 L 234.93 383.113 L 235.36 383.318 L 236.001 383.728 L 237.045 384.117 L 238.108 384.117 L 239.153 383.728 L 240.004 383.318 L 241.049 382.723 L 241.909 381.514 L 242.954 380.304 L 243.586 378.889 L 243.586 378.889 L 243.806 378.5 L 242.524 379.095 L 241.049 379.505 L 239.583 379.299 L 238.108 378.889 L 237.045 378.295 L 236.001 377.7 L 235.36 376.696 L 234.736 375.486 L 234.526 374.277 L 234.526 373.067 L 234.736 371.857 L 235.149 370.464 L 236.001 369.254 L 236.835 368.249 L 237.897 367.245 L 238.942 366.835 L 240.224 366.445 L 241.69 366.24 L 242.954 366.445 L 244.21 366.835 L 245.061 367.45 L 245.895 367.839 L 246.536 368.659 L 247.177 369.254 L 247.599 370.258 L 248.003 371.058 L 248.222 372.063 L 248.222 373.067 L 248.003 374.277 L 247.792 375.486 L 247.388 377.085 L 246.536 378.705 L 245.702 380.304 L 244.851 381.718 L 244.017 382.908 L 243.165 383.912 L 242.313 384.732 L 241.269 385.327 L 240.224 385.737 L 239.153 386.126 L 238.108 386.126 L 237.045 386.126 L 236.001 385.921 L 234.93 385.531 L 233.885 384.917 L 233.033 384.322 L 232.419 383.523 L 231.988 382.723 L 231.567 381.903 L 231.347 380.898 L 231.567 379.709 L 231.778 378.705 Z " fill="none" vector-effect="non-scaling-stroke" stroke-width="0.778" stroke="rgb(31,26,23)" stroke-linejoin="miter" stroke-linecap="square" stroke-miterlimit="3"/><path d=" M 245.272 374.687 L 245.702 373.683 L 245.895 372.862 L 245.895 372.063 L 245.702 371.058 L 245.272 370.464 L 244.851 369.848 L 244.21 369.254 L 243.586 368.844 L 242.735 368.659 L 241.909 368.659 L 241.049 368.659 L 240.224 368.844 L 239.372 369.459 L 238.731 370.054 L 238.108 370.668 L 237.686 371.673 L 237.256 372.473 L 237.045 373.272 L 237.045 374.072 L 237.256 374.871 L 237.686 375.691 L 238.108 376.286 L 238.731 376.88 L 239.583 377.29 L 240.417 377.495 L 241.269 377.7 L 241.909 377.495 L 242.735 377.29 L 243.586 376.88 L 244.21 376.286 L 244.851 375.691 L 245.272 374.687 Z " fill="none" vector-effect="non-scaling-stroke" stroke-width="0.778" stroke="rgb(31,26,23)" stroke-linejoin="miter" stroke-linecap="square" stroke-miterlimit="3"/><path d=" M 267.292 383.41 L 265.184 384.004 L 260.32 371.15 L 259.697 372.155 L 258.845 373.364 L 258.02 374.369 L 257.16 375.169 L 256.334 373.159 L 257.59 371.745 L 258.635 370.146 L 259.486 368.731 L 259.697 367.337 L 261.172 366.927 L 267.292 383.41 Z " fill="rgb(31,26,23)"/><path d=" M 283.306 375.763 L 283.947 377.772 L 272.559 381.585 L 272.349 380.991 L 272.349 380.191 L 272.349 378.982 L 272.77 377.567 L 273.604 375.968 L 274.675 374.164 L 276.352 371.355 L 277.186 369.347 L 277.397 368.526 L 277.397 367.727 L 277.397 367.132 L 277.186 366.517 L 276.976 365.922 L 276.572 365.512 L 276.141 365.123 L 275.501 364.918 L 274.86 364.712 L 274.245 364.508 L 273.604 364.712 L 272.99 364.712 L 272.138 365.123 L 271.497 365.512 L 271.093 365.922 L 270.874 366.517 L 270.663 367.132 L 270.452 367.727 L 270.452 368.526 L 270.874 369.347 L 268.547 369.736 L 268.336 368.731 L 268.336 367.521 L 268.547 366.517 L 268.767 365.718 L 269.381 364.918 L 270.233 364.118 L 271.093 363.503 L 272.349 363.114 L 273.604 362.704 L 274.675 362.704 L 275.72 362.704 L 276.765 363.114 L 277.616 363.503 L 278.468 364.118 L 278.872 364.918 L 279.302 365.922 L 279.724 366.927 L 279.724 367.931 L 279.513 369.141 L 279.083 370.351 L 278.257 372.155 L 276.976 374.369 L 275.931 376.173 L 275.29 377.382 L 274.86 377.977 L 274.675 378.777 L 283.306 375.763 Z " fill="rgb(31,26,23)"/><path d=" M 267.625 383.728 L 265.509 384.322 L 260.654 371.468 L 260.031 372.473 L 259.179 373.683 L 258.345 374.687 L 257.493 375.486 L 256.659 373.477 L 257.924 372.063 L 258.968 370.464 L 259.82 369.048 L 260.031 367.655 L 261.506 367.245 L 267.625 383.728 Z " fill="none" vector-effect="non-scaling-stroke" stroke-width="0.778" stroke="rgb(31,26,23)" stroke-linejoin="miter" stroke-linecap="square" stroke-miterlimit="3"/><path d=" M 283.639 376.081 L 284.28 378.09 L 272.893 381.903 L 272.673 381.308 L 272.673 380.509 L 272.673 379.299 L 273.104 377.885 L 273.938 376.286 L 275 374.482 L 276.686 371.673 L 277.52 369.664 L 277.731 368.844 L 277.731 368.044 L 277.731 367.45 L 277.52 366.835 L 277.309 366.24 L 276.897 365.831 L 276.475 365.441 L 275.834 365.236 L 275.193 365.031 L 274.579 364.825 L 273.938 365.031 L 273.314 365.031 L 272.463 365.441 L 271.822 365.831 L 271.418 366.24 L 271.207 366.835 L 270.997 367.45 L 270.777 368.044 L 270.777 368.844 L 271.207 369.664 L 268.881 370.054 L 268.67 369.048 L 268.67 367.839 L 268.881 366.835 L 269.091 366.035 L 269.715 365.236 L 270.566 364.436 L 271.418 363.821 L 272.673 363.432 L 273.938 363.022 L 275 363.022 L 276.045 363.022 L 277.09 363.432 L 277.941 363.821 L 278.802 364.436 L 279.206 365.236 L 279.627 366.24 L 280.057 367.245 L 280.057 368.249 L 279.846 369.459 L 279.416 370.668 L 278.582 372.473 L 277.309 374.687 L 276.264 376.49 L 275.623 377.7 L 275.193 378.295 L 275 379.095 L 283.639 376.081 Z " fill="none" vector-effect="non-scaling-stroke" stroke-width="0.778" stroke="rgb(31,26,23)" stroke-linejoin="miter" stroke-linecap="square" stroke-miterlimit="3"/></g></g></svg>